<?xml version="1.0" encoding="UTF-8" standalone="no"?>
<!DOCTYPE svg PUBLIC "-//W3C//DTD SVG 1.1//EN"
 "http://www.w3.org/Graphics/SVG/1.1/DTD/svg11.dtd">
<!-- Generated by graphviz version 3.0.0 (20220226.1711)
 -->
<!-- Title: dependency&#45;cruiser output Pages: 1 -->
<svg width="867pt" height="820pt"
 viewBox="0.00 0.00 866.50 820.37" xmlns="http://www.w3.org/2000/svg" xmlns:xlink="http://www.w3.org/1999/xlink">
<g id="graph0" class="graph" transform="scale(1 1) rotate(0) translate(4 816.37)">
<title>dependency&#45;cruiser output</title>
<polygon fill="white" stroke="transparent" points="-4,4 -4,-816.37 862.5,-816.37 862.5,4 -4,4"/>
<g id="clust1" class="cluster">
<title>cluster_src</title>
<path fill="#ffffff" stroke="black" stroke-width="2" d="M20,-20.37C20,-20.37 838.5,-20.37 838.5,-20.37 844.5,-20.37 850.5,-26.37 850.5,-32.37 850.5,-32.37 850.5,-792.37 850.5,-792.37 850.5,-798.37 844.5,-804.37 838.5,-804.37 838.5,-804.37 20,-804.37 20,-804.37 14,-804.37 8,-798.37 8,-792.37 8,-792.37 8,-32.37 8,-32.37 8,-26.37 14,-20.37 20,-20.37"/>
<text text-anchor="middle" x="429.25" y="-793.17" font-family="Helvetica,sans-Serif" font-weight="bold" font-size="9.00">src</text>
</g>
<g id="clust2" class="cluster">
<title>cluster_src/components</title>
<path fill="#ffffff" stroke="black" stroke-width="2" d="M381.5,-44.37C381.5,-44.37 830.5,-44.37 830.5,-44.37 836.5,-44.37 842.5,-50.37 842.5,-56.37 842.5,-56.37 842.5,-368.37 842.5,-368.37 842.5,-374.37 836.5,-380.37 830.5,-380.37 830.5,-380.37 381.5,-380.37 381.5,-380.37 375.5,-380.37 369.5,-374.37 369.5,-368.37 369.5,-368.37 369.5,-56.37 369.5,-56.37 369.5,-50.37 375.5,-44.37 381.5,-44.37"/>
<text text-anchor="middle" x="606" y="-369.17" font-family="Helvetica,sans-Serif" font-weight="bold" font-size="9.00">components</text>
</g>
<g id="clust3" class="cluster">
<title>cluster_src/components/atoms</title>
<path fill="#ffffff" stroke="black" stroke-width="2" d="M628.5,-59.37C628.5,-59.37 822.5,-59.37 822.5,-59.37 828.5,-59.37 834.5,-65.37 834.5,-71.37 834.5,-71.37 834.5,-339.37 834.5,-339.37 834.5,-345.37 828.5,-351.37 822.5,-351.37 822.5,-351.37 628.5,-351.37 628.5,-351.37 622.5,-351.37 616.5,-345.37 616.5,-339.37 616.5,-339.37 616.5,-71.37 616.5,-71.37 616.5,-65.37 622.5,-59.37 628.5,-59.37"/>
<text text-anchor="middle" x="725.5" y="-340.17" font-family="Helvetica,sans-Serif" font-weight="bold" font-size="9.00">atoms</text>
</g>
<g id="clust4" class="cluster">
<title>cluster_src/components/molecules</title>
<path fill="#ffffff" stroke="black" stroke-width="2" d="M493.5,-52.37C493.5,-52.37 588.5,-52.37 588.5,-52.37 594.5,-52.37 600.5,-58.37 600.5,-64.37 600.5,-64.37 600.5,-182.37 600.5,-182.37 600.5,-188.37 594.5,-194.37 588.5,-194.37 588.5,-194.37 493.5,-194.37 493.5,-194.37 487.5,-194.37 481.5,-188.37 481.5,-182.37 481.5,-182.37 481.5,-64.37 481.5,-64.37 481.5,-58.37 487.5,-52.37 493.5,-52.37"/>
<text text-anchor="middle" x="541" y="-183.17" font-family="Helvetica,sans-Serif" font-weight="bold" font-size="9.00">molecules</text>
</g>
<g id="clust5" class="cluster">
<title>cluster_src/components/organisms</title>
<path fill="#ffffff" stroke="black" stroke-width="2" d="M389.5,-212.37C389.5,-212.37 571,-212.37 571,-212.37 577,-212.37 583,-218.37 583,-224.37 583,-224.37 583,-342.37 583,-342.37 583,-348.37 577,-354.37 571,-354.37 571,-354.37 389.5,-354.37 389.5,-354.37 383.5,-354.37 377.5,-348.37 377.5,-342.37 377.5,-342.37 377.5,-224.37 377.5,-224.37 377.5,-218.37 383.5,-212.37 389.5,-212.37"/>
<text text-anchor="middle" x="480.25" y="-343.17" font-family="Helvetica,sans-Serif" font-weight="bold" font-size="9.00">organisms</text>
</g>
<g id="clust6" class="cluster">
<title>cluster_src/components/templates</title>
<path fill="#ffffff" stroke="black" stroke-width="2" d="M394.5,-152.37C394.5,-152.37 453.5,-152.37 453.5,-152.37 459.5,-152.37 465.5,-158.37 465.5,-164.37 465.5,-164.37 465.5,-192.37 465.5,-192.37 465.5,-198.37 459.5,-204.37 453.5,-204.37 453.5,-204.37 394.5,-204.37 394.5,-204.37 388.5,-204.37 382.5,-198.37 382.5,-192.37 382.5,-192.37 382.5,-164.37 382.5,-164.37 382.5,-158.37 388.5,-152.37 394.5,-152.37"/>
<text text-anchor="middle" x="424" y="-193.17" font-family="Helvetica,sans-Serif" font-weight="bold" font-size="9.00">templates</text>
</g>
<g id="clust7" class="cluster">
<title>cluster_src/constants</title>
<path fill="#ffffff" stroke="black" stroke-width="2" d="M276.5,-122.37C276.5,-122.37 322.5,-122.37 322.5,-122.37 328.5,-122.37 334.5,-128.37 334.5,-134.37 334.5,-134.37 334.5,-162.37 334.5,-162.37 334.5,-168.37 328.5,-174.37 322.5,-174.37 322.5,-174.37 276.5,-174.37 276.5,-174.37 270.5,-174.37 264.5,-168.37 264.5,-162.37 264.5,-162.37 264.5,-134.37 264.5,-134.37 264.5,-128.37 270.5,-122.37 276.5,-122.37"/>
<text text-anchor="middle" x="299.5" y="-163.17" font-family="Helvetica,sans-Serif" font-weight="bold" font-size="9.00">constants</text>
</g>
<g id="clust8" class="cluster">
<title>cluster_src/hooks</title>
<path fill="#ffffff" stroke="black" stroke-width="2" d="M485.5,-388.37C485.5,-388.37 596.5,-388.37 596.5,-388.37 602.5,-388.37 608.5,-394.37 608.5,-400.37 608.5,-400.37 608.5,-578.37 608.5,-578.37 608.5,-584.37 602.5,-590.37 596.5,-590.37 596.5,-590.37 485.5,-590.37 485.5,-590.37 479.5,-590.37 473.5,-584.37 473.5,-578.37 473.5,-578.37 473.5,-400.37 473.5,-400.37 473.5,-394.37 479.5,-388.37 485.5,-388.37"/>
<text text-anchor="middle" x="541" y="-579.17" font-family="Helvetica,sans-Serif" font-weight="bold" font-size="9.00">hooks</text>
</g>
<g id="clust9" class="cluster">
<title>cluster_src/pages</title>
<path fill="#ffffff" stroke="black" stroke-width="2" d="M249.5,-182.37C249.5,-182.37 349.5,-182.37 349.5,-182.37 355.5,-182.37 361.5,-188.37 361.5,-194.37 361.5,-194.37 361.5,-402.37 361.5,-402.37 361.5,-408.37 355.5,-414.37 349.5,-414.37 349.5,-414.37 249.5,-414.37 249.5,-414.37 243.5,-414.37 237.5,-408.37 237.5,-402.37 237.5,-402.37 237.5,-194.37 237.5,-194.37 237.5,-188.37 243.5,-182.37 249.5,-182.37"/>
<text text-anchor="middle" x="299.5" y="-403.17" font-family="Helvetica,sans-Serif" font-weight="bold" font-size="9.00">pages</text>
</g>
<g id="clust10" class="cluster">
<title>cluster_src/routes</title>
<path fill="#ffffff" stroke="black" stroke-width="2" d="M171,-287.37C171,-287.37 217,-287.37 217,-287.37 223,-287.37 229,-293.37 229,-299.37 229,-299.37 229,-327.37 229,-327.37 229,-333.37 223,-339.37 217,-339.37 217,-339.37 171,-339.37 171,-339.37 165,-339.37 159,-333.37 159,-327.37 159,-327.37 159,-299.37 159,-299.37 159,-293.37 165,-287.37 171,-287.37"/>
<text text-anchor="middle" x="194" y="-328.17" font-family="Helvetica,sans-Serif" font-weight="bold" font-size="9.00">routes</text>
</g>
<g id="clust11" class="cluster">
<title>cluster_src/services</title>
<path fill="#ffffff" stroke="black" stroke-width="2" d="M643,-598.37C643,-598.37 818.5,-598.37 818.5,-598.37 824.5,-598.37 830.5,-604.37 830.5,-610.37 830.5,-610.37 830.5,-668.37 830.5,-668.37 830.5,-674.37 824.5,-680.37 818.5,-680.37 818.5,-680.37 643,-680.37 643,-680.37 637,-680.37 631,-674.37 631,-668.37 631,-668.37 631,-610.37 631,-610.37 631,-604.37 637,-598.37 643,-598.37"/>
<text text-anchor="middle" x="730.75" y="-669.17" font-family="Helvetica,sans-Serif" font-weight="bold" font-size="9.00">services</text>
</g>
<g id="clust12" class="cluster">
<title>cluster_src/store</title>
<path fill="#ffffff" stroke="black" stroke-width="2" d="M401,-598.37C401,-598.37 591.5,-598.37 591.5,-598.37 597.5,-598.37 603.5,-604.37 603.5,-610.37 603.5,-610.37 603.5,-766.37 603.5,-766.37 603.5,-772.37 597.5,-778.37 591.5,-778.37 591.5,-778.37 401,-778.37 401,-778.37 395,-778.37 389,-772.37 389,-766.37 389,-766.37 389,-610.37 389,-610.37 389,-604.37 395,-598.37 401,-598.37"/>
<text text-anchor="middle" x="496.25" y="-767.17" font-family="Helvetica,sans-Serif" font-weight="bold" font-size="9.00">store</text>
</g>
<g id="clust13" class="cluster">
<title>cluster_src/store/slices</title>
<path fill="#ffffff" stroke="black" stroke-width="2" d="M498.5,-606.37C498.5,-606.37 583.5,-606.37 583.5,-606.37 589.5,-606.37 595.5,-612.37 595.5,-618.37 595.5,-618.37 595.5,-740.37 595.5,-740.37 595.5,-746.37 589.5,-752.37 583.5,-752.37 583.5,-752.37 498.5,-752.37 498.5,-752.37 492.5,-752.37 486.5,-746.37 486.5,-740.37 486.5,-740.37 486.5,-618.37 486.5,-618.37 486.5,-612.37 492.5,-606.37 498.5,-606.37"/>
<text text-anchor="middle" x="541" y="-741.17" font-family="Helvetica,sans-Serif" font-weight="bold" font-size="9.00">slices</text>
</g>
<g id="clust14" class="cluster">
<title>cluster_src/store/slices/counter</title>
<path fill="#ffffff" stroke="black" stroke-width="2" d="M506.5,-674.37C506.5,-674.37 575.5,-674.37 575.5,-674.37 581.5,-674.37 587.5,-680.37 587.5,-686.37 587.5,-686.37 587.5,-714.37 587.5,-714.37 587.5,-720.37 581.5,-726.37 575.5,-726.37 575.5,-726.37 506.5,-726.37 506.5,-726.37 500.5,-726.37 494.5,-720.37 494.5,-714.37 494.5,-714.37 494.5,-686.37 494.5,-686.37 494.5,-680.37 500.5,-674.37 506.5,-674.37"/>
<text text-anchor="middle" x="541" y="-715.17" font-family="Helvetica,sans-Serif" font-weight="bold" font-size="9.00">counter</text>
</g>
<g id="clust15" class="cluster">
<title>cluster_src/store/slices/todos</title>
<path fill="#ffffff" stroke="black" stroke-width="2" d="M511,-614.37C511,-614.37 571,-614.37 571,-614.37 577,-614.37 583,-620.37 583,-626.37 583,-626.37 583,-654.37 583,-654.37 583,-660.37 577,-666.37 571,-666.37 571,-666.37 511,-666.37 511,-666.37 505,-666.37 499,-660.37 499,-654.37 499,-654.37 499,-626.37 499,-626.37 499,-620.37 505,-614.37 511,-614.37"/>
<text text-anchor="middle" x="541" y="-655.17" font-family="Helvetica,sans-Serif" font-weight="bold" font-size="9.00">todos</text>
</g>
<g id="clust16" class="cluster">
<title>cluster_src/stories</title>
<path fill="#ffffff" stroke="black" stroke-width="2" d="M648,-444.37C648,-444.37 710,-444.37 710,-444.37 716,-444.37 722,-450.37 722,-456.37 722,-456.37 722,-518.37 722,-518.37 722,-524.37 716,-530.37 710,-530.37 710,-530.37 648,-530.37 648,-530.37 642,-530.37 636,-524.37 636,-518.37 636,-518.37 636,-456.37 636,-456.37 636,-450.37 642,-444.37 648,-444.37"/>
<text text-anchor="middle" x="679" y="-519.17" font-family="Helvetica,sans-Serif" font-weight="bold" font-size="9.00">stories</text>
</g>
<g id="clust17" class="cluster">
<title>cluster_src/stories/data</title>
<path fill="#ffffff" stroke="black" stroke-width="2" d="M656,-452.37C656,-452.37 702,-452.37 702,-452.37 708,-452.37 714,-458.37 714,-464.37 714,-464.37 714,-492.37 714,-492.37 714,-498.37 708,-504.37 702,-504.37 702,-504.37 656,-504.37 656,-504.37 650,-504.37 644,-498.37 644,-492.37 644,-492.37 644,-464.37 644,-464.37 644,-458.37 650,-452.37 656,-452.37"/>
<text text-anchor="middle" x="679" y="-493.17" font-family="Helvetica,sans-Serif" font-weight="bold" font-size="9.00">data</text>
</g>
<g id="clust18" class="cluster">
<title>cluster_src/styles</title>
<path fill="#ffffff" stroke="black" stroke-width="2" d="M170.5,-578.37C170.5,-578.37 217.5,-578.37 217.5,-578.37 223.5,-578.37 229.5,-584.37 229.5,-590.37 229.5,-590.37 229.5,-618.37 229.5,-618.37 229.5,-624.37 223.5,-630.37 217.5,-630.37 217.5,-630.37 170.5,-630.37 170.5,-630.37 164.5,-630.37 158.5,-624.37 158.5,-618.37 158.5,-618.37 158.5,-590.37 158.5,-590.37 158.5,-584.37 164.5,-578.37 170.5,-578.37"/>
<text text-anchor="middle" x="194" y="-619.17" font-family="Helvetica,sans-Serif" font-weight="bold" font-size="9.00">styles</text>
</g>
<g id="clust19" class="cluster">
<title>cluster_src/types</title>
<path fill="#ffffff" stroke="black" stroke-width="2" d="M28,-656.37C28,-656.37 74,-656.37 74,-656.37 80,-656.37 86,-662.37 86,-668.37 86,-668.37 86,-696.37 86,-696.37 86,-702.37 80,-708.37 74,-708.37 74,-708.37 28,-708.37 28,-708.37 22,-708.37 16,-702.37 16,-696.37 16,-696.37 16,-668.37 16,-668.37 16,-662.37 22,-656.37 28,-656.37"/>
<text text-anchor="middle" x="51" y="-697.17" font-family="Helvetica,sans-Serif" font-weight="bold" font-size="9.00">types</text>
</g>
<g id="clust20" class="cluster">
<title>cluster_src/utilities</title>
<path fill="#ffffff" stroke="black" stroke-width="2" d="M656,-538.37C656,-538.37 702,-538.37 702,-538.37 708,-538.37 714,-544.37 714,-550.37 714,-550.37 714,-578.37 714,-578.37 714,-584.37 708,-590.37 702,-590.37 702,-590.37 656,-590.37 656,-590.37 650,-590.37 644,-584.37 644,-578.37 644,-578.37 644,-550.37 644,-550.37 644,-544.37 650,-538.37 656,-538.37"/>
<text text-anchor="middle" x="679" y="-579.17" font-family="Helvetica,sans-Serif" font-weight="bold" font-size="9.00">utilities</text>
</g>
<!-- src/App.tsx -->
<g id="node1" class="node">
<title>src/App.tsx</title>
<g id="a_node1"><a xlink:href="src/App.tsx" xlink:title="App.tsx">
<path fill="#bbfeff" stroke="black" d="M144.5,-571.37C144.5,-571.37 102.5,-571.37 102.5,-571.37 99.5,-571.37 96.5,-568.37 96.5,-565.37 96.5,-565.37 96.5,-559.37 96.5,-559.37 96.5,-556.37 99.5,-553.37 102.5,-553.37 102.5,-553.37 144.5,-553.37 144.5,-553.37 147.5,-553.37 150.5,-556.37 150.5,-559.37 150.5,-559.37 150.5,-565.37 150.5,-565.37 150.5,-568.37 147.5,-571.37 144.5,-571.37"/>
<text text-anchor="start" x="108" y="-560.17" font-family="Helvetica,sans-Serif" font-size="9.00">App.tsx</text>
</a>
</g>
</g>
<!-- src/hooks/useAuth.tsx -->
<g id="node2" class="node">
<title>src/hooks/useAuth.tsx</title>
<g id="a_node2"><a xlink:href="src/hooks/useAuth.tsx" xlink:title="useAuth.tsx">
<path fill="#bbfeff" stroke="black" d="M567,-564.37C567,-564.37 515,-564.37 515,-564.37 512,-564.37 509,-561.37 509,-558.37 509,-558.37 509,-552.37 509,-552.37 509,-549.37 512,-546.37 515,-546.37 515,-546.37 567,-546.37 567,-546.37 570,-546.37 573,-549.37 573,-552.37 573,-552.37 573,-558.37 573,-558.37 573,-561.37 570,-564.37 567,-564.37"/>
<text text-anchor="start" x="517" y="-553.17" font-family="Helvetica,sans-Serif" font-size="9.00">useAuth.tsx</text>
</a>
</g>
</g>
<!-- src/App.tsx&#45;&gt;src/hooks/useAuth.tsx -->
<g id="edge1" class="edge">
<title>src/App.tsx&#45;&gt;src/hooks/useAuth.tsx</title>
<path fill="none" stroke="#000000" stroke-width="2" stroke-opacity="0.200000" d="M150.86,-561.56C153.44,-561.49 156.02,-561.42 158.5,-561.37 284.56,-558.52 434.09,-556.59 502.48,-555.79"/>
<polygon fill="#000000" fill-opacity="0.200000" stroke="#000000" stroke-width="2" stroke-opacity="0.200000" points="502.87,-557.88 508.84,-555.71 502.82,-553.68 502.87,-557.88"/>
</g>
<!-- src/routes/index.tsx -->
<g id="node3" class="node">
<title>src/routes/index.tsx</title>
<g id="a_node3"><a xlink:href="src/routes/index.tsx" xlink:title="index.tsx">
<path fill="#bbfeff" stroke="black" d="M215,-313.37C215,-313.37 173,-313.37 173,-313.37 170,-313.37 167,-310.37 167,-307.37 167,-307.37 167,-301.37 167,-301.37 167,-298.37 170,-295.37 173,-295.37 173,-295.37 215,-295.37 215,-295.37 218,-295.37 221,-298.37 221,-301.37 221,-301.37 221,-307.37 221,-307.37 221,-310.37 218,-313.37 215,-313.37"/>
<text text-anchor="start" x="175.5" y="-302.17" font-family="Helvetica,sans-Serif" font-size="9.00">index.tsx</text>
</a>
</g>
</g>
<!-- src/App.tsx&#45;&gt;src/routes/index.tsx -->
<g id="edge2" class="edge">
<title>src/App.tsx&#45;&gt;src/routes/index.tsx</title>
<path fill="none" stroke="#000000" stroke-width="2" stroke-opacity="0.200000" d="M124.56,-553.34C124.98,-513.63 128.54,-354.86 158.5,-317.37 159.48,-316.14 160.59,-315.03 161.79,-314.03"/>
<polygon fill="#000000" fill-opacity="0.200000" stroke="#000000" stroke-width="2" stroke-opacity="0.200000" points="163.02,-315.73 166.83,-310.65 160.68,-312.25 163.02,-315.73"/>
</g>
<!-- src/store/index.ts -->
<g id="node4" class="node">
<title>src/store/index.ts</title>
<g id="a_node4"><a xlink:href="src/store/index.ts" xlink:title="index.ts">
<path fill="#ddfeff" stroke="black" d="M445,-640.37C445,-640.37 403,-640.37 403,-640.37 400,-640.37 397,-637.37 397,-634.37 397,-634.37 397,-628.37 397,-628.37 397,-625.37 400,-622.37 403,-622.37 403,-622.37 445,-622.37 445,-622.37 448,-622.37 451,-625.37 451,-628.37 451,-628.37 451,-634.37 451,-634.37 451,-637.37 448,-640.37 445,-640.37"/>
<text text-anchor="start" x="408" y="-629.17" font-family="Helvetica,sans-Serif" font-size="9.00">index.ts</text>
</a>
</g>
</g>
<!-- src/App.tsx&#45;&gt;src/store/index.ts -->
<g id="edge3" class="edge">
<title>src/App.tsx&#45;&gt;src/store/index.ts</title>
<path fill="none" stroke="#000000" stroke-width="2" stroke-opacity="0.200000" d="M150.6,-564.32C171.98,-566.23 202.92,-569.69 229.5,-575.37 293.15,-588.98 306.74,-601.12 369.5,-618.37 376.41,-620.27 383.87,-622.17 390.95,-623.91"/>
<polygon fill="#000000" fill-opacity="0.200000" stroke="#000000" stroke-width="2" stroke-opacity="0.200000" points="390.47,-625.96 396.8,-625.33 391.46,-621.87 390.47,-625.96"/>
</g>
<!-- src/styles/index.css -->
<g id="node5" class="node">
<title>src/styles/index.css</title>
<g id="a_node5"><a xlink:href="src/styles/index.css" xlink:title="index.css">
<path fill="#ffffcc" stroke="black" d="M215.5,-604.37C215.5,-604.37 172.5,-604.37 172.5,-604.37 169.5,-604.37 166.5,-601.37 166.5,-598.37 166.5,-598.37 166.5,-592.37 166.5,-592.37 166.5,-589.37 169.5,-586.37 172.5,-586.37 172.5,-586.37 215.5,-586.37 215.5,-586.37 218.5,-586.37 221.5,-589.37 221.5,-592.37 221.5,-592.37 221.5,-598.37 221.5,-598.37 221.5,-601.37 218.5,-604.37 215.5,-604.37"/>
<text text-anchor="start" x="174.5" y="-593.17" font-family="Helvetica,sans-Serif" font-size="9.00">index.css</text>
</a>
</g>
</g>
<!-- src/App.tsx&#45;&gt;src/styles/index.css -->
<g id="edge4" class="edge">
<title>src/App.tsx&#45;&gt;src/styles/index.css</title>
<path fill="none" stroke="#000000" stroke-width="2" stroke-opacity="0.200000" d="M138.76,-571.49C144.73,-575.12 151.83,-579.18 158.5,-582.37 159.58,-582.89 160.69,-583.4 161.82,-583.9"/>
<polygon fill="#000000" fill-opacity="0.200000" stroke="#000000" stroke-width="2" stroke-opacity="0.200000" points="161.2,-585.92 167.54,-586.34 162.85,-582.06 161.2,-585.92"/>
</g>
<!-- src/services/auth.service.ts -->
<g id="node27" class="node">
<title>src/services/auth.service.ts</title>
<g id="a_node27"><a xlink:href="src/services/auth.service.ts" xlink:title="auth.service.ts">
<path fill="#ddfeff" stroke="black" d="M710.5,-624.37C710.5,-624.37 647.5,-624.37 647.5,-624.37 644.5,-624.37 641.5,-621.37 641.5,-618.37 641.5,-618.37 641.5,-612.37 641.5,-612.37 641.5,-609.37 644.5,-606.37 647.5,-606.37 647.5,-606.37 710.5,-606.37 710.5,-606.37 713.5,-606.37 716.5,-609.37 716.5,-612.37 716.5,-612.37 716.5,-618.37 716.5,-618.37 716.5,-621.37 713.5,-624.37 710.5,-624.37"/>
<text text-anchor="start" x="649.5" y="-613.17" font-family="Helvetica,sans-Serif" font-size="9.00">auth.service.ts</text>
</a>
</g>
</g>
<!-- src/hooks/useAuth.tsx&#45;&gt;src/services/auth.service.ts -->
<g id="edge21" class="edge">
<title>src/hooks/useAuth.tsx&#45;&gt;src/services/auth.service.ts</title>
<path fill="none" stroke="#000000" stroke-width="2" stroke-opacity="0.200000" d="M558.28,-564.44C573.18,-572.55 595.97,-584.51 616.5,-593.37 625.47,-597.24 635.36,-601 644.55,-604.28"/>
<polygon fill="#000000" fill-opacity="0.200000" stroke="#000000" stroke-width="2" stroke-opacity="0.200000" points="644.1,-606.35 650.46,-606.36 645.5,-602.39 644.1,-606.35"/>
</g>
<!-- src/stories/data/users.ts -->
<g id="node28" class="node">
<title>src/stories/data/users.ts</title>
<g id="a_node28"><a xlink:href="src/stories/data/users.ts" xlink:title="users.ts">
<path fill="#ddfeff" stroke="black" d="M700,-478.37C700,-478.37 658,-478.37 658,-478.37 655,-478.37 652,-475.37 652,-472.37 652,-472.37 652,-466.37 652,-466.37 652,-463.37 655,-460.37 658,-460.37 658,-460.37 700,-460.37 700,-460.37 703,-460.37 706,-463.37 706,-466.37 706,-466.37 706,-472.37 706,-472.37 706,-475.37 703,-478.37 700,-478.37"/>
<text text-anchor="start" x="663" y="-467.17" font-family="Helvetica,sans-Serif" font-size="9.00">users.ts</text>
</a>
</g>
</g>
<!-- src/hooks/useAuth.tsx&#45;&gt;src/stories/data/users.ts -->
<g id="edge22" class="edge">
<title>src/hooks/useAuth.tsx&#45;&gt;src/stories/data/users.ts</title>
<path fill="none" stroke="#000000" stroke-width="2" stroke-opacity="0.200000" d="M573.12,-552.13C584.76,-549.97 597.75,-546.37 608.5,-540.37 621.86,-532.92 650.06,-501.72 666.13,-483.25"/>
<polygon fill="#000000" fill-opacity="0.200000" stroke="#000000" stroke-width="2" stroke-opacity="0.200000" points="667.98,-484.32 670.32,-478.41 664.8,-481.57 667.98,-484.32"/>
</g>
<!-- src/utilities/index.ts -->
<g id="node29" class="node">
<title>src/utilities/index.ts</title>
<g id="a_node29"><a xlink:href="src/utilities/index.ts" xlink:title="index.ts">
<path fill="#ddfeff" stroke="black" d="M700,-564.37C700,-564.37 658,-564.37 658,-564.37 655,-564.37 652,-561.37 652,-558.37 652,-558.37 652,-552.37 652,-552.37 652,-549.37 655,-546.37 658,-546.37 658,-546.37 700,-546.37 700,-546.37 703,-546.37 706,-549.37 706,-552.37 706,-552.37 706,-558.37 706,-558.37 706,-561.37 703,-564.37 700,-564.37"/>
<text text-anchor="start" x="663" y="-553.17" font-family="Helvetica,sans-Serif" font-size="9.00">index.ts</text>
</a>
</g>
</g>
<!-- src/hooks/useAuth.tsx&#45;&gt;src/utilities/index.ts -->
<g id="edge23" class="edge">
<title>src/hooks/useAuth.tsx&#45;&gt;src/utilities/index.ts</title>
<path fill="none" stroke="#000000" stroke-width="2" stroke-opacity="0.200000" d="M573.2,-555.37C594.9,-555.37 623.75,-555.37 645.69,-555.37"/>
<polygon fill="#000000" fill-opacity="0.200000" stroke="#000000" stroke-width="2" stroke-opacity="0.200000" points="645.97,-557.47 651.97,-555.37 645.97,-553.27 645.97,-557.47"/>
</g>
<!-- src/components/atoms/InsSpinner.tsx -->
<g id="node14" class="node">
<title>src/components/atoms/InsSpinner.tsx</title>
<g id="a_node14"><a xlink:href="src/components/atoms/InsSpinner.tsx" xlink:title="InsSpinner.tsx">
<path fill="#bbfeff" stroke="black" d="M710,-115.37C710,-115.37 648,-115.37 648,-115.37 645,-115.37 642,-112.37 642,-109.37 642,-109.37 642,-103.37 642,-103.37 642,-100.37 645,-97.37 648,-97.37 648,-97.37 710,-97.37 710,-97.37 713,-97.37 716,-100.37 716,-103.37 716,-103.37 716,-109.37 716,-109.37 716,-112.37 713,-115.37 710,-115.37"/>
<text text-anchor="start" x="650" y="-104.17" font-family="Helvetica,sans-Serif" font-size="9.00">InsSpinner.tsx</text>
</a>
</g>
</g>
<!-- src/routes/index.tsx&#45;&gt;src/components/atoms/InsSpinner.tsx -->
<g id="edge33" class="edge">
<title>src/routes/index.tsx&#45;&gt;src/components/atoms/InsSpinner.tsx</title>
<path fill="none" stroke="#000000" stroke-width="2" stroke-opacity="0.200000" d="M194.61,-295.2C193.83,-266.23 195.1,-175.31 237.5,-119.37 277.87,-66.11 305.8,-67.57 369.5,-47.37 470.88,-15.22 528.15,34.32 608.5,-35.37 627.49,-51.84 599.61,-72.75 616.5,-91.37 621.58,-96.97 628.36,-100.64 635.57,-103.02"/>
<polygon fill="#000000" fill-opacity="0.200000" stroke="#000000" stroke-width="2" stroke-opacity="0.200000" points="635.36,-105.14 641.7,-104.72 636.48,-101.09 635.36,-105.14"/>
</g>
<!-- src/components/organisms/InsAuth.tsx -->
<g id="node20" class="node">
<title>src/components/organisms/InsAuth.tsx</title>
<g id="a_node20"><a xlink:href="src/components/organisms/InsAuth.tsx" xlink:title="InsAuth.tsx">
<path fill="#bbfeff" stroke="black" d="M448.5,-328.37C448.5,-328.37 399.5,-328.37 399.5,-328.37 396.5,-328.37 393.5,-325.37 393.5,-322.37 393.5,-322.37 393.5,-316.37 393.5,-316.37 393.5,-313.37 396.5,-310.37 399.5,-310.37 399.5,-310.37 448.5,-310.37 448.5,-310.37 451.5,-310.37 454.5,-313.37 454.5,-316.37 454.5,-316.37 454.5,-322.37 454.5,-322.37 454.5,-325.37 451.5,-328.37 448.5,-328.37"/>
<text text-anchor="start" x="401.5" y="-317.17" font-family="Helvetica,sans-Serif" font-size="9.00">InsAuth.tsx</text>
</a>
</g>
</g>
<!-- src/routes/index.tsx&#45;&gt;src/components/organisms/InsAuth.tsx -->
<g id="edge34" class="edge">
<title>src/routes/index.tsx&#45;&gt;src/components/organisms/InsAuth.tsx</title>
<path fill="none" stroke="#000000" stroke-width="2" stroke-opacity="0.200000" d="M221.32,-310.53C224.48,-312.27 227.34,-314.5 229.5,-317.37 242.91,-335.18 221.12,-402.25 237.5,-417.37 247.62,-426.71 351.31,-426.64 361.5,-417.37 375.53,-404.6 357.09,-346.72 369.5,-332.37 374.19,-326.95 380.72,-323.59 387.62,-321.54"/>
<polygon fill="#000000" fill-opacity="0.200000" stroke="#000000" stroke-width="2" stroke-opacity="0.200000" points="388.13,-323.58 393.46,-320.12 387.14,-319.5 388.13,-323.58"/>
</g>
<!-- src/constants/index.ts -->
<g id="node26" class="node">
<title>src/constants/index.ts</title>
<g id="a_node26"><a xlink:href="src/constants/index.ts" xlink:title="index.ts">
<path fill="#ddfeff" stroke="black" d="M320.5,-148.37C320.5,-148.37 278.5,-148.37 278.5,-148.37 275.5,-148.37 272.5,-145.37 272.5,-142.37 272.5,-142.37 272.5,-136.37 272.5,-136.37 272.5,-133.37 275.5,-130.37 278.5,-130.37 278.5,-130.37 320.5,-130.37 320.5,-130.37 323.5,-130.37 326.5,-133.37 326.5,-136.37 326.5,-136.37 326.5,-142.37 326.5,-142.37 326.5,-145.37 323.5,-148.37 320.5,-148.37"/>
<text text-anchor="start" x="283.5" y="-137.17" font-family="Helvetica,sans-Serif" font-size="9.00">index.ts</text>
</a>
</g>
</g>
<!-- src/routes/index.tsx&#45;&gt;src/constants/index.ts -->
<g id="edge35" class="edge">
<title>src/routes/index.tsx&#45;&gt;src/constants/index.ts</title>
<path fill="none" stroke="#000000" stroke-width="2" stroke-opacity="0.200000" d="M196.05,-295.24C198.98,-273.2 209.01,-216.15 237.5,-179.37 246.71,-167.47 260.51,-158.01 272.66,-151.27"/>
<polygon fill="#000000" fill-opacity="0.200000" stroke="#000000" stroke-width="2" stroke-opacity="0.200000" points="273.79,-153.05 278.1,-148.37 271.82,-149.34 273.79,-153.05"/>
</g>
<!-- src/pages/BasePage.tsx -->
<g id="node36" class="node">
<title>src/pages/BasePage.tsx</title>
<g id="a_node36"><a xlink:href="src/pages/BasePage.tsx" xlink:title="BasePage.tsx">
<path fill="#bbfeff" stroke="black" d="M330,-268.37C330,-268.37 269,-268.37 269,-268.37 266,-268.37 263,-265.37 263,-262.37 263,-262.37 263,-256.37 263,-256.37 263,-253.37 266,-250.37 269,-250.37 269,-250.37 330,-250.37 330,-250.37 333,-250.37 336,-253.37 336,-256.37 336,-256.37 336,-262.37 336,-262.37 336,-265.37 333,-268.37 330,-268.37"/>
<text text-anchor="start" x="271" y="-257.17" font-family="Helvetica,sans-Serif" font-size="9.00">BasePage.tsx</text>
</a>
</g>
</g>
<!-- src/routes/index.tsx&#45;&gt;src/pages/BasePage.tsx -->
<g id="edge36" class="edge">
<title>src/routes/index.tsx&#45;&gt;src/pages/BasePage.tsx</title>
<path fill="none" stroke="#000000" stroke-width="2" stroke-opacity="0.200000" d="M205.49,-295.27C213.7,-288.58 225.67,-279.77 237.5,-274.37 243.58,-271.6 250.24,-269.29 256.86,-267.39"/>
<polygon fill="#000000" fill-opacity="0.200000" stroke="#000000" stroke-width="2" stroke-opacity="0.200000" points="257.66,-269.35 262.9,-265.76 256.56,-265.3 257.66,-269.35"/>
</g>
<!-- src/pages/ColumnThreePage.tsx -->
<g id="node38" class="node">
<title>src/pages/ColumnThreePage.tsx</title>
<g id="a_node38"><a xlink:href="src/pages/ColumnThreePage.tsx" xlink:title="ColumnThreePage.tsx">
<path fill="#bbfeff" stroke="black" d="M347.5,-298.37C347.5,-298.37 251.5,-298.37 251.5,-298.37 248.5,-298.37 245.5,-295.37 245.5,-292.37 245.5,-292.37 245.5,-286.37 245.5,-286.37 245.5,-283.37 248.5,-280.37 251.5,-280.37 251.5,-280.37 347.5,-280.37 347.5,-280.37 350.5,-280.37 353.5,-283.37 353.5,-286.37 353.5,-286.37 353.5,-292.37 353.5,-292.37 353.5,-295.37 350.5,-298.37 347.5,-298.37"/>
<text text-anchor="start" x="253.5" y="-287.17" font-family="Helvetica,sans-Serif" font-size="9.00">ColumnThreePage.tsx</text>
</a>
</g>
</g>
<!-- src/routes/index.tsx&#45;&gt;src/pages/ColumnThreePage.tsx -->
<g id="edge37" class="edge">
<title>src/routes/index.tsx&#45;&gt;src/pages/ColumnThreePage.tsx</title>
<path fill="none" stroke="#000000" stroke-width="2" stroke-opacity="0.200000" d="M221.12,-300.58C226.69,-299.78 232.79,-298.89 239.04,-297.99"/>
<polygon fill="#000000" fill-opacity="0.200000" stroke="#000000" stroke-width="2" stroke-opacity="0.200000" points="239.69,-300.01 245.33,-297.07 239.09,-295.86 239.69,-300.01"/>
</g>
<!-- src/pages/HomePage.tsx -->
<g id="node39" class="node">
<title>src/pages/HomePage.tsx</title>
<g id="a_node39"><a xlink:href="src/pages/HomePage.tsx" xlink:title="HomePage.tsx">
<path fill="#bbfeff" stroke="black" d="M332,-208.37C332,-208.37 267,-208.37 267,-208.37 264,-208.37 261,-205.37 261,-202.37 261,-202.37 261,-196.37 261,-196.37 261,-193.37 264,-190.37 267,-190.37 267,-190.37 332,-190.37 332,-190.37 335,-190.37 338,-193.37 338,-196.37 338,-196.37 338,-202.37 338,-202.37 338,-205.37 335,-208.37 332,-208.37"/>
<text text-anchor="start" x="269" y="-197.17" font-family="Helvetica,sans-Serif" font-size="9.00">HomePage.tsx</text>
</a>
</g>
</g>
<!-- src/routes/index.tsx&#45;&gt;src/pages/HomePage.tsx -->
<g id="edge38" class="edge">
<title>src/routes/index.tsx&#45;&gt;src/pages/HomePage.tsx</title>
<path fill="none" stroke="#000000" stroke-width="2" stroke-opacity="0.200000" d="M196.65,-295.11C200.41,-276.75 211.41,-235.7 237.5,-214.37 242.61,-210.19 248.71,-207.15 255.04,-204.95"/>
<polygon fill="#000000" fill-opacity="0.200000" stroke="#000000" stroke-width="2" stroke-opacity="0.200000" points="255.79,-206.91 260.91,-203.14 254.56,-202.9 255.79,-206.91"/>
</g>
<!-- src/pages/NotFoundPage.tsx -->
<g id="node40" class="node">
<title>src/pages/NotFoundPage.tsx</title>
<g id="a_node40"><a xlink:href="src/pages/NotFoundPage.tsx" xlink:title="NotFoundPage.tsx">
<path fill="#bbfeff" stroke="black" d="M339.5,-388.37C339.5,-388.37 259.5,-388.37 259.5,-388.37 256.5,-388.37 253.5,-385.37 253.5,-382.37 253.5,-382.37 253.5,-376.37 253.5,-376.37 253.5,-373.37 256.5,-370.37 259.5,-370.37 259.5,-370.37 339.5,-370.37 339.5,-370.37 342.5,-370.37 345.5,-373.37 345.5,-376.37 345.5,-376.37 345.5,-382.37 345.5,-382.37 345.5,-385.37 342.5,-388.37 339.5,-388.37"/>
<text text-anchor="start" x="261.5" y="-377.17" font-family="Helvetica,sans-Serif" font-size="9.00">NotFoundPage.tsx</text>
</a>
</g>
</g>
<!-- src/routes/index.tsx&#45;&gt;src/pages/NotFoundPage.tsx -->
<g id="edge39" class="edge">
<title>src/routes/index.tsx&#45;&gt;src/pages/NotFoundPage.tsx</title>
<path fill="none" stroke="#000000" stroke-width="2" stroke-opacity="0.200000" d="M221.09,-310.71C224.29,-312.43 227.22,-314.6 229.5,-317.37 242.98,-333.72 223.07,-348.85 237.5,-364.37 240.39,-367.48 243.82,-369.99 247.55,-372.02"/>
<polygon fill="#000000" fill-opacity="0.200000" stroke="#000000" stroke-width="2" stroke-opacity="0.200000" points="246.88,-374.02 253.21,-374.64 248.65,-370.21 246.88,-374.02"/>
</g>
<!-- src/pages/SettingsPage.tsx -->
<g id="node41" class="node">
<title>src/pages/SettingsPage.tsx</title>
<g id="a_node41"><a xlink:href="src/pages/SettingsPage.tsx" xlink:title="SettingsPage.tsx">
<path fill="#bbfeff" stroke="black" d="M336,-358.37C336,-358.37 263,-358.37 263,-358.37 260,-358.37 257,-355.37 257,-352.37 257,-352.37 257,-346.37 257,-346.37 257,-343.37 260,-340.37 263,-340.37 263,-340.37 336,-340.37 336,-340.37 339,-340.37 342,-343.37 342,-346.37 342,-346.37 342,-352.37 342,-352.37 342,-355.37 339,-358.37 336,-358.37"/>
<text text-anchor="start" x="265" y="-347.17" font-family="Helvetica,sans-Serif" font-size="9.00">SettingsPage.tsx</text>
</a>
</g>
</g>
<!-- src/routes/index.tsx&#45;&gt;src/pages/SettingsPage.tsx -->
<g id="edge40" class="edge">
<title>src/routes/index.tsx&#45;&gt;src/pages/SettingsPage.tsx</title>
<path fill="none" stroke="#000000" stroke-width="2" stroke-opacity="0.200000" d="M221.15,-311.68C224.18,-313.23 227.05,-315.11 229.5,-317.37 235.63,-323.03 231.04,-329.08 237.5,-334.37 241.5,-337.65 246.12,-340.22 250.98,-342.25"/>
<polygon fill="#000000" fill-opacity="0.200000" stroke="#000000" stroke-width="2" stroke-opacity="0.200000" points="250.42,-344.28 256.78,-344.38 251.87,-340.34 250.42,-344.28"/>
</g>
<!-- src/pages/UnauthorizedPage.tsx -->
<g id="node42" class="node">
<title>src/pages/UnauthorizedPage.tsx</title>
<g id="a_node42"><a xlink:href="src/pages/UnauthorizedPage.tsx" xlink:title="UnauthorizedPage.tsx">
<path fill="#bbfeff" stroke="black" d="M347,-328.37C347,-328.37 252,-328.37 252,-328.37 249,-328.37 246,-325.37 246,-322.37 246,-322.37 246,-316.37 246,-316.37 246,-313.37 249,-310.37 252,-310.37 252,-310.37 347,-310.37 347,-310.37 350,-310.37 353,-313.37 353,-316.37 353,-316.37 353,-322.37 353,-322.37 353,-325.37 350,-328.37 347,-328.37"/>
<text text-anchor="start" x="254" y="-317.17" font-family="Helvetica,sans-Serif" font-size="9.00">UnauthorizedPage.tsx</text>
</a>
</g>
</g>
<!-- src/routes/index.tsx&#45;&gt;src/pages/UnauthorizedPage.tsx -->
<g id="edge41" class="edge">
<title>src/routes/index.tsx&#45;&gt;src/pages/UnauthorizedPage.tsx</title>
<path fill="none" stroke="#000000" stroke-width="2" stroke-opacity="0.200000" d="M221.12,-308.15C226.89,-308.99 233.24,-309.91 239.74,-310.85"/>
<polygon fill="#000000" fill-opacity="0.200000" stroke="#000000" stroke-width="2" stroke-opacity="0.200000" points="239.5,-312.94 245.74,-311.72 240.1,-308.78 239.5,-312.94"/>
</g>
<!-- src/store/slices/counter/counterSlice.ts -->
<g id="node45" class="node">
<title>src/store/slices/counter/counterSlice.ts</title>
<g id="a_node45"><a xlink:href="src/store/slices/counter/counterSlice.ts" xlink:title="counterSlice.ts">
<path fill="#ddfeff" stroke="black" d="M573.5,-700.37C573.5,-700.37 508.5,-700.37 508.5,-700.37 505.5,-700.37 502.5,-697.37 502.5,-694.37 502.5,-694.37 502.5,-688.37 502.5,-688.37 502.5,-685.37 505.5,-682.37 508.5,-682.37 508.5,-682.37 573.5,-682.37 573.5,-682.37 576.5,-682.37 579.5,-685.37 579.5,-688.37 579.5,-688.37 579.5,-694.37 579.5,-694.37 579.5,-697.37 576.5,-700.37 573.5,-700.37"/>
<text text-anchor="start" x="510.5" y="-689.17" font-family="Helvetica,sans-Serif" font-size="9.00">counterSlice.ts</text>
</a>
</g>
</g>
<!-- src/store/index.ts&#45;&gt;src/store/slices/counter/counterSlice.ts -->
<g id="edge44" class="edge">
<title>src/store/index.ts&#45;&gt;src/store/slices/counter/counterSlice.ts</title>
<path fill="none" stroke="#000000" stroke-width="2" stroke-opacity="0.200000" d="M434.69,-640.63C444,-649.1 458.79,-661.49 473.5,-669.37 481.59,-673.7 490.69,-677.4 499.5,-680.45"/>
<polygon fill="#000000" fill-opacity="0.200000" stroke="#000000" stroke-width="2" stroke-opacity="0.200000" points="498.88,-682.45 505.23,-682.36 500.21,-678.47 498.88,-682.45"/>
</g>
<!-- src/store/slices/todos/todosSlice.ts -->
<g id="node46" class="node">
<title>src/store/slices/todos/todosSlice.ts</title>
<g id="a_node46"><a xlink:href="src/store/slices/todos/todosSlice.ts" xlink:title="todosSlice.ts">
<path fill="#ddfeff" stroke="black" d="M569,-640.37C569,-640.37 513,-640.37 513,-640.37 510,-640.37 507,-637.37 507,-634.37 507,-634.37 507,-628.37 507,-628.37 507,-625.37 510,-622.37 513,-622.37 513,-622.37 569,-622.37 569,-622.37 572,-622.37 575,-625.37 575,-628.37 575,-628.37 575,-634.37 575,-634.37 575,-637.37 572,-640.37 569,-640.37"/>
<text text-anchor="start" x="515" y="-629.17" font-family="Helvetica,sans-Serif" font-size="9.00">todosSlice.ts</text>
</a>
</g>
</g>
<!-- src/store/index.ts&#45;&gt;src/store/slices/todos/todosSlice.ts -->
<g id="edge45" class="edge">
<title>src/store/index.ts&#45;&gt;src/store/slices/todos/todosSlice.ts</title>
<path fill="none" stroke="#000000" stroke-width="2" stroke-opacity="0.200000" d="M451.1,-631.37C465.72,-631.37 484.26,-631.37 500.62,-631.37"/>
<polygon fill="#000000" fill-opacity="0.200000" stroke="#000000" stroke-width="2" stroke-opacity="0.200000" points="501,-633.47 507,-631.37 501,-629.27 501,-633.47"/>
</g>
<!-- src/components/atoms/InsAvatar.tsx -->
<g id="node6" class="node">
<title>src/components/atoms/InsAvatar.tsx</title>
<g id="a_node6"><a xlink:href="src/components/atoms/InsAvatar.tsx" xlink:title="InsAvatar.tsx">
<path fill="#bbfeff" stroke="black" d="M707,-205.37C707,-205.37 651,-205.37 651,-205.37 648,-205.37 645,-202.37 645,-199.37 645,-199.37 645,-193.37 645,-193.37 645,-190.37 648,-187.37 651,-187.37 651,-187.37 707,-187.37 707,-187.37 710,-187.37 713,-190.37 713,-193.37 713,-193.37 713,-199.37 713,-199.37 713,-202.37 710,-205.37 707,-205.37"/>
<text text-anchor="start" x="653" y="-194.17" font-family="Helvetica,sans-Serif" font-size="9.00">InsAvatar.tsx</text>
</a>
</g>
</g>
<!-- src/components/atoms/InsBodyText.stories.tsx -->
<g id="node7" class="node">
<title>src/components/atoms/InsBodyText.stories.tsx</title>
<g id="a_node7"><a xlink:href="src/components/atoms/InsBodyText.stories.tsx" xlink:title="InsBodyText.stories.tsx">
<path fill="#bbfeff" stroke="black" d="M727.5,-295.37C727.5,-295.37 630.5,-295.37 630.5,-295.37 627.5,-295.37 624.5,-292.37 624.5,-289.37 624.5,-289.37 624.5,-283.37 624.5,-283.37 624.5,-280.37 627.5,-277.37 630.5,-277.37 630.5,-277.37 727.5,-277.37 727.5,-277.37 730.5,-277.37 733.5,-280.37 733.5,-283.37 733.5,-283.37 733.5,-289.37 733.5,-289.37 733.5,-292.37 730.5,-295.37 727.5,-295.37"/>
<text text-anchor="start" x="632.5" y="-284.17" font-family="Helvetica,sans-Serif" font-size="9.00">InsBodyText.stories.tsx</text>
</a>
</g>
</g>
<!-- src/components/atoms/InsBodyText.tsx -->
<g id="node8" class="node">
<title>src/components/atoms/InsBodyText.tsx</title>
<g id="a_node8"><a xlink:href="src/components/atoms/InsBodyText.tsx" xlink:title="InsBodyText.tsx">
<path fill="#bbfeff" stroke="black" d="M820.5,-310.37C820.5,-310.37 752.5,-310.37 752.5,-310.37 749.5,-310.37 746.5,-307.37 746.5,-304.37 746.5,-304.37 746.5,-298.37 746.5,-298.37 746.5,-295.37 749.5,-292.37 752.5,-292.37 752.5,-292.37 820.5,-292.37 820.5,-292.37 823.5,-292.37 826.5,-295.37 826.5,-298.37 826.5,-298.37 826.5,-304.37 826.5,-304.37 826.5,-307.37 823.5,-310.37 820.5,-310.37"/>
<text text-anchor="start" x="754.5" y="-299.17" font-family="Helvetica,sans-Serif" font-size="9.00">InsBodyText.tsx</text>
</a>
</g>
</g>
<!-- src/components/atoms/InsBodyText.stories.tsx&#45;&gt;src/components/atoms/InsBodyText.tsx -->
<g id="edge5" class="edge">
<title>src/components/atoms/InsBodyText.stories.tsx&#45;&gt;src/components/atoms/InsBodyText.tsx</title>
<path fill="none" stroke="#000000" stroke-width="2" stroke-opacity="0.200000" d="M733.68,-294C735.82,-294.3 737.95,-294.61 740.07,-294.91"/>
<polygon fill="#000000" fill-opacity="0.200000" stroke="#000000" stroke-width="2" stroke-opacity="0.200000" points="740.13,-297.04 746.37,-295.8 740.72,-292.88 740.13,-297.04"/>
</g>
<!-- src/components/atoms/InsButton.tsx -->
<g id="node9" class="node">
<title>src/components/atoms/InsButton.tsx</title>
<g id="a_node9"><a xlink:href="src/components/atoms/InsButton.tsx" xlink:title="InsButton.tsx">
<path fill="#bbfeff" stroke="black" d="M707,-325.37C707,-325.37 651,-325.37 651,-325.37 648,-325.37 645,-322.37 645,-319.37 645,-319.37 645,-313.37 645,-313.37 645,-310.37 648,-307.37 651,-307.37 651,-307.37 707,-307.37 707,-307.37 710,-307.37 713,-310.37 713,-313.37 713,-313.37 713,-319.37 713,-319.37 713,-322.37 710,-325.37 707,-325.37"/>
<text text-anchor="start" x="653" y="-314.17" font-family="Helvetica,sans-Serif" font-size="9.00">InsButton.tsx</text>
</a>
</g>
</g>
<!-- src/components/atoms/InsContentBlock.tsx -->
<g id="node10" class="node">
<title>src/components/atoms/InsContentBlock.tsx</title>
<g id="a_node10"><a xlink:href="src/components/atoms/InsContentBlock.tsx" xlink:title="InsContentBlock.tsx">
<path fill="#bbfeff" stroke="black" d="M721.5,-145.37C721.5,-145.37 636.5,-145.37 636.5,-145.37 633.5,-145.37 630.5,-142.37 630.5,-139.37 630.5,-139.37 630.5,-133.37 630.5,-133.37 630.5,-130.37 633.5,-127.37 636.5,-127.37 636.5,-127.37 721.5,-127.37 721.5,-127.37 724.5,-127.37 727.5,-130.37 727.5,-133.37 727.5,-133.37 727.5,-139.37 727.5,-139.37 727.5,-142.37 724.5,-145.37 721.5,-145.37"/>
<text text-anchor="start" x="638.5" y="-134.17" font-family="Helvetica,sans-Serif" font-size="9.00">InsContentBlock.tsx</text>
</a>
</g>
</g>
<!-- src/components/atoms/InsHeading.tsx -->
<g id="node11" class="node">
<title>src/components/atoms/InsHeading.tsx</title>
<g id="a_node11"><a xlink:href="src/components/atoms/InsHeading.tsx" xlink:title="InsHeading.tsx">
<path fill="#bbfeff" stroke="black" d="M711.5,-175.37C711.5,-175.37 646.5,-175.37 646.5,-175.37 643.5,-175.37 640.5,-172.37 640.5,-169.37 640.5,-169.37 640.5,-163.37 640.5,-163.37 640.5,-160.37 643.5,-157.37 646.5,-157.37 646.5,-157.37 711.5,-157.37 711.5,-157.37 714.5,-157.37 717.5,-160.37 717.5,-163.37 717.5,-163.37 717.5,-169.37 717.5,-169.37 717.5,-172.37 714.5,-175.37 711.5,-175.37"/>
<text text-anchor="start" x="648.5" y="-164.17" font-family="Helvetica,sans-Serif" font-size="9.00">InsHeading.tsx</text>
</a>
</g>
</g>
<!-- src/components/atoms/InsIconButton.tsx -->
<g id="node12" class="node">
<title>src/components/atoms/InsIconButton.tsx</title>
<g id="a_node12"><a xlink:href="src/components/atoms/InsIconButton.tsx" xlink:title="InsIconButton.tsx">
<path fill="#bbfeff" stroke="black" d="M716,-265.37C716,-265.37 642,-265.37 642,-265.37 639,-265.37 636,-262.37 636,-259.37 636,-259.37 636,-253.37 636,-253.37 636,-250.37 639,-247.37 642,-247.37 642,-247.37 716,-247.37 716,-247.37 719,-247.37 722,-250.37 722,-253.37 722,-253.37 722,-259.37 722,-259.37 722,-262.37 719,-265.37 716,-265.37"/>
<text text-anchor="start" x="644" y="-254.17" font-family="Helvetica,sans-Serif" font-size="9.00">InsIconButton.tsx</text>
</a>
</g>
</g>
<!-- src/components/atoms/InsImage.tsx -->
<g id="node13" class="node">
<title>src/components/atoms/InsImage.tsx</title>
<g id="a_node13"><a xlink:href="src/components/atoms/InsImage.tsx" xlink:title="InsImage.tsx">
<path fill="#bbfeff" stroke="black" d="M707,-235.37C707,-235.37 651,-235.37 651,-235.37 648,-235.37 645,-232.37 645,-229.37 645,-229.37 645,-223.37 645,-223.37 645,-220.37 648,-217.37 651,-217.37 651,-217.37 707,-217.37 707,-217.37 710,-217.37 713,-220.37 713,-223.37 713,-223.37 713,-229.37 713,-229.37 713,-232.37 710,-235.37 707,-235.37"/>
<text text-anchor="start" x="653" y="-224.17" font-family="Helvetica,sans-Serif" font-size="9.00">InsImage.tsx</text>
</a>
</g>
</g>
<!-- src/components/atoms/InsStatusIcon.tsx -->
<g id="node15" class="node">
<title>src/components/atoms/InsStatusIcon.tsx</title>
<g id="a_node15"><a xlink:href="src/components/atoms/InsStatusIcon.tsx" xlink:title="InsStatusIcon.tsx">
<path fill="#ccffcc" stroke="black" d="M715.5,-85.37C715.5,-85.37 642.5,-85.37 642.5,-85.37 639.5,-85.37 636.5,-82.37 636.5,-79.37 636.5,-79.37 636.5,-73.37 636.5,-73.37 636.5,-70.37 639.5,-67.37 642.5,-67.37 642.5,-67.37 715.5,-67.37 715.5,-67.37 718.5,-67.37 721.5,-70.37 721.5,-73.37 721.5,-73.37 721.5,-79.37 721.5,-79.37 721.5,-82.37 718.5,-85.37 715.5,-85.37"/>
<text text-anchor="start" x="644.5" y="-74.17" font-family="Helvetica,sans-Serif" font-size="9.00">InsStatusIcon.tsx</text>
</a>
</g>
</g>
<!-- src/components/molecules/InsAppBar.tsx -->
<g id="node16" class="node">
<title>src/components/molecules/InsAppBar.tsx</title>
<g id="a_node16"><a xlink:href="src/components/molecules/InsAppBar.tsx" xlink:title="InsAppBar.tsx">
<path fill="#bbfeff" stroke="black" d="M571.5,-168.37C571.5,-168.37 510.5,-168.37 510.5,-168.37 507.5,-168.37 504.5,-165.37 504.5,-162.37 504.5,-162.37 504.5,-156.37 504.5,-156.37 504.5,-153.37 507.5,-150.37 510.5,-150.37 510.5,-150.37 571.5,-150.37 571.5,-150.37 574.5,-150.37 577.5,-153.37 577.5,-156.37 577.5,-156.37 577.5,-162.37 577.5,-162.37 577.5,-165.37 574.5,-168.37 571.5,-168.37"/>
<text text-anchor="start" x="512.5" y="-157.17" font-family="Helvetica,sans-Serif" font-size="9.00">InsAppBar.tsx</text>
</a>
</g>
</g>
<!-- src/components/molecules/InsAvatarWithText.tsx -->
<g id="node17" class="node">
<title>src/components/molecules/InsAvatarWithText.tsx</title>
<g id="a_node17"><a xlink:href="src/components/molecules/InsAvatarWithText.tsx" xlink:title="InsAvatarWithText.tsx">
<path fill="#bbfeff" stroke="black" d="M586.5,-138.37C586.5,-138.37 495.5,-138.37 495.5,-138.37 492.5,-138.37 489.5,-135.37 489.5,-132.37 489.5,-132.37 489.5,-126.37 489.5,-126.37 489.5,-123.37 492.5,-120.37 495.5,-120.37 495.5,-120.37 586.5,-120.37 586.5,-120.37 589.5,-120.37 592.5,-123.37 592.5,-126.37 592.5,-126.37 592.5,-132.37 592.5,-132.37 592.5,-135.37 589.5,-138.37 586.5,-138.37"/>
<text text-anchor="start" x="497.5" y="-127.17" font-family="Helvetica,sans-Serif" font-size="9.00">InsAvatarWithText.tsx</text>
</a>
</g>
</g>
<!-- src/components/molecules/InsAvatarWithText.tsx&#45;&gt;src/components/atoms/InsAvatar.tsx -->
<g id="edge6" class="edge">
<title>src/components/molecules/InsAvatarWithText.tsx&#45;&gt;src/components/atoms/InsAvatar.tsx</title>
<path fill="none" stroke="#000000" stroke-width="2" stroke-opacity="0.200000" d="M592.8,-134.3C598.65,-136.66 604.08,-139.91 608.5,-144.37 620.34,-156.32 604.76,-169.32 616.5,-181.37 622.43,-187.45 630.38,-191.23 638.6,-193.54"/>
<polygon fill="#000000" fill-opacity="0.200000" stroke="#000000" stroke-width="2" stroke-opacity="0.200000" points="638.58,-195.7 644.91,-195.03 639.55,-191.61 638.58,-195.7"/>
</g>
<!-- src/components/molecules/InsAvatarWithText.tsx&#45;&gt;src/components/atoms/InsBodyText.tsx -->
<g id="edge7" class="edge">
<title>src/components/molecules/InsAvatarWithText.tsx&#45;&gt;src/components/atoms/InsBodyText.tsx</title>
<path fill="none" stroke="#000000" stroke-width="2" stroke-opacity="0.200000" d="M592.74,-124.83C598.67,-122.42 604.15,-119.05 608.5,-114.37 624.73,-96.93 598.44,-76.91 616.5,-61.37 655.92,-27.45 693.02,-28.72 733.5,-61.37 768.92,-89.94 781.43,-237.73 784.6,-286.06"/>
<polygon fill="#000000" fill-opacity="0.200000" stroke="#000000" stroke-width="2" stroke-opacity="0.200000" points="782.52,-286.34 784.99,-292.19 786.71,-286.07 782.52,-286.34"/>
</g>
<!-- src/components/molecules/InsDrawer.tsx -->
<g id="node18" class="node">
<title>src/components/molecules/InsDrawer.tsx</title>
<g id="a_node18"><a xlink:href="src/components/molecules/InsDrawer.tsx" xlink:title="InsDrawer.tsx">
<path fill="#bbfeff" stroke="black" d="M571,-78.37C571,-78.37 511,-78.37 511,-78.37 508,-78.37 505,-75.37 505,-72.37 505,-72.37 505,-66.37 505,-66.37 505,-63.37 508,-60.37 511,-60.37 511,-60.37 571,-60.37 571,-60.37 574,-60.37 577,-63.37 577,-66.37 577,-66.37 577,-72.37 577,-72.37 577,-75.37 574,-78.37 571,-78.37"/>
<text text-anchor="start" x="513" y="-67.17" font-family="Helvetica,sans-Serif" font-size="9.00">InsDrawer.tsx</text>
</a>
</g>
</g>
<!-- src/components/molecules/InsIndicator.tsx -->
<g id="node19" class="node">
<title>src/components/molecules/InsIndicator.tsx</title>
<g id="a_node19"><a xlink:href="src/components/molecules/InsIndicator.tsx" xlink:title="InsIndicator.tsx">
<path fill="#bbfeff" stroke="black" d="M573.5,-108.37C573.5,-108.37 508.5,-108.37 508.5,-108.37 505.5,-108.37 502.5,-105.37 502.5,-102.37 502.5,-102.37 502.5,-96.37 502.5,-96.37 502.5,-93.37 505.5,-90.37 508.5,-90.37 508.5,-90.37 573.5,-90.37 573.5,-90.37 576.5,-90.37 579.5,-93.37 579.5,-96.37 579.5,-96.37 579.5,-102.37 579.5,-102.37 579.5,-105.37 576.5,-108.37 573.5,-108.37"/>
<text text-anchor="start" x="510.5" y="-97.17" font-family="Helvetica,sans-Serif" font-size="9.00">InsIndicator.tsx</text>
</a>
</g>
</g>
<!-- src/components/organisms/InsAuth.tsx&#45;&gt;src/hooks/useAuth.tsx -->
<g id="edge8" class="edge">
<title>src/components/organisms/InsAuth.tsx&#45;&gt;src/hooks/useAuth.tsx</title>
<path fill="none" stroke="#000000" stroke-width="2" stroke-opacity="0.200000" d="M454.75,-324.17C458.93,-326.08 462.73,-328.72 465.5,-332.37 479.48,-350.79 458.71,-522.59 473.5,-540.37 480.71,-549.05 491.78,-553.34 502.83,-555.31"/>
<polygon fill="#000000" fill-opacity="0.200000" stroke="#000000" stroke-width="2" stroke-opacity="0.200000" points="502.7,-557.42 508.94,-556.18 503.29,-553.26 502.7,-557.42"/>
</g>
<!-- src/components/organisms/InsFooter.tsx -->
<g id="node21" class="node">
<title>src/components/organisms/InsFooter.tsx</title>
<g id="a_node21"><a xlink:href="src/components/organisms/InsFooter.tsx" xlink:title="InsFooter.tsx">
<path fill="#bbfeff" stroke="black" d="M452,-238.37C452,-238.37 396,-238.37 396,-238.37 393,-238.37 390,-235.37 390,-232.37 390,-232.37 390,-226.37 390,-226.37 390,-223.37 393,-220.37 396,-220.37 396,-220.37 452,-220.37 452,-220.37 455,-220.37 458,-223.37 458,-226.37 458,-226.37 458,-232.37 458,-232.37 458,-235.37 455,-238.37 452,-238.37"/>
<text text-anchor="start" x="398" y="-227.17" font-family="Helvetica,sans-Serif" font-size="9.00">InsFooter.tsx</text>
</a>
</g>
</g>
<!-- src/components/organisms/InsFooter.tsx&#45;&gt;src/components/atoms/InsBodyText.tsx -->
<g id="edge9" class="edge">
<title>src/components/organisms/InsFooter.tsx&#45;&gt;src/components/atoms/InsBodyText.tsx</title>
<path fill="none" stroke="#000000" stroke-width="2" stroke-opacity="0.200000" d="M458.13,-237.85C460.93,-239.63 463.46,-241.77 465.5,-244.37 484.57,-268.65 452.38,-290.85 473.5,-313.37 517.68,-360.49 552.16,-333.57 616.5,-339.37 668.29,-344.04 684.07,-355.51 733.5,-339.37 748.3,-334.54 762.38,-323.72 772.15,-314.86"/>
<polygon fill="#000000" fill-opacity="0.200000" stroke="#000000" stroke-width="2" stroke-opacity="0.200000" points="773.64,-316.34 776.58,-310.7 770.77,-313.28 773.64,-316.34"/>
</g>
<!-- src/components/organisms/InsFooter.tsx&#45;&gt;src/components/atoms/InsImage.tsx -->
<g id="edge10" class="edge">
<title>src/components/organisms/InsFooter.tsx&#45;&gt;src/components/atoms/InsImage.tsx</title>
<path fill="none" stroke="#000000" stroke-width="2" stroke-opacity="0.200000" d="M458.08,-228.98C504.57,-228.43 589.12,-227.42 638.75,-226.83"/>
<polygon fill="#000000" fill-opacity="0.200000" stroke="#000000" stroke-width="2" stroke-opacity="0.200000" points="638.94,-228.93 644.92,-226.76 638.89,-224.73 638.94,-228.93"/>
</g>
<!-- src/components/organisms/InsFooter.tsx&#45;&gt;src/components/molecules/InsAppBar.tsx -->
<g id="edge11" class="edge">
<title>src/components/organisms/InsFooter.tsx&#45;&gt;src/components/molecules/InsAppBar.tsx</title>
<path fill="none" stroke="#000000" stroke-width="2" stroke-opacity="0.200000" d="M442.5,-220.23C449.7,-216.38 458.07,-211.77 465.5,-207.37 484.83,-195.91 506.36,-181.9 521.28,-171.98"/>
<polygon fill="#000000" fill-opacity="0.200000" stroke="#000000" stroke-width="2" stroke-opacity="0.200000" points="522.64,-173.6 526.46,-168.53 520.3,-170.11 522.64,-173.6"/>
</g>
<!-- src/components/organisms/InsHeader.tsx -->
<g id="node22" class="node">
<title>src/components/organisms/InsHeader.tsx</title>
<g id="a_node22"><a xlink:href="src/components/organisms/InsHeader.tsx" xlink:title="InsHeader.tsx">
<path fill="#bbfeff" stroke="black" d="M454.5,-268.37C454.5,-268.37 393.5,-268.37 393.5,-268.37 390.5,-268.37 387.5,-265.37 387.5,-262.37 387.5,-262.37 387.5,-256.37 387.5,-256.37 387.5,-253.37 390.5,-250.37 393.5,-250.37 393.5,-250.37 454.5,-250.37 454.5,-250.37 457.5,-250.37 460.5,-253.37 460.5,-256.37 460.5,-256.37 460.5,-262.37 460.5,-262.37 460.5,-265.37 457.5,-268.37 454.5,-268.37"/>
<text text-anchor="start" x="395.5" y="-257.17" font-family="Helvetica,sans-Serif" font-size="9.00">InsHeader.tsx</text>
</a>
</g>
</g>
<!-- src/components/organisms/InsHeader.tsx&#45;&gt;src/components/atoms/InsIconButton.tsx -->
<g id="edge12" class="edge">
<title>src/components/organisms/InsHeader.tsx&#45;&gt;src/components/atoms/InsIconButton.tsx</title>
<path fill="none" stroke="#000000" stroke-width="2" stroke-opacity="0.200000" d="M460.71,-258.95C504.86,-258.42 580.2,-257.53 629.54,-256.94"/>
<polygon fill="#000000" fill-opacity="0.200000" stroke="#000000" stroke-width="2" stroke-opacity="0.200000" points="629.75,-259.04 635.72,-256.87 629.7,-254.84 629.75,-259.04"/>
</g>
<!-- src/components/organisms/InsHeader.tsx&#45;&gt;src/components/atoms/InsImage.tsx -->
<g id="edge13" class="edge">
<title>src/components/organisms/InsHeader.tsx&#45;&gt;src/components/atoms/InsImage.tsx</title>
<path fill="none" stroke="#000000" stroke-width="2" stroke-opacity="0.200000" d="M460.71,-254.71C507.74,-248.58 590.14,-237.83 638.83,-231.48"/>
<polygon fill="#000000" fill-opacity="0.200000" stroke="#000000" stroke-width="2" stroke-opacity="0.200000" points="639.21,-233.55 644.88,-230.69 638.66,-229.38 639.21,-233.55"/>
</g>
<!-- src/components/organisms/InsHeader.tsx&#45;&gt;src/components/molecules/InsAppBar.tsx -->
<g id="edge14" class="edge">
<title>src/components/organisms/InsHeader.tsx&#45;&gt;src/components/molecules/InsAppBar.tsx</title>
<path fill="none" stroke="#000000" stroke-width="2" stroke-opacity="0.200000" d="M458.62,-250.17C461.17,-248.54 463.52,-246.62 465.5,-244.37 476.03,-232.38 464.82,-222.76 473.5,-209.37 483.98,-193.21 501.58,-180.33 516.04,-171.68"/>
<polygon fill="#000000" fill-opacity="0.200000" stroke="#000000" stroke-width="2" stroke-opacity="0.200000" points="517.46,-173.29 521.61,-168.47 515.36,-169.65 517.46,-173.29"/>
</g>
<!-- src/components/organisms/InsProfile.tsx -->
<g id="node23" class="node">
<title>src/components/organisms/InsProfile.tsx</title>
<g id="a_node23"><a xlink:href="src/components/organisms/InsProfile.tsx" xlink:title="InsProfile.tsx">
<path fill="#bbfeff" stroke="black" d="M569,-307.37C569,-307.37 513,-307.37 513,-307.37 510,-307.37 507,-304.37 507,-301.37 507,-301.37 507,-295.37 507,-295.37 507,-292.37 510,-289.37 513,-289.37 513,-289.37 569,-289.37 569,-289.37 572,-289.37 575,-292.37 575,-295.37 575,-295.37 575,-301.37 575,-301.37 575,-304.37 572,-307.37 569,-307.37"/>
<text text-anchor="start" x="515" y="-296.17" font-family="Helvetica,sans-Serif" font-size="9.00">InsProfile.tsx</text>
</a>
</g>
</g>
<!-- src/components/organisms/InsHeader.tsx&#45;&gt;src/components/organisms/InsProfile.tsx -->
<g id="edge15" class="edge">
<title>src/components/organisms/InsHeader.tsx&#45;&gt;src/components/organisms/InsProfile.tsx</title>
<path fill="none" stroke="#000000" stroke-width="2" stroke-opacity="0.200000" d="M451.67,-268.41C468.24,-274.03 489.67,-281.3 507.27,-287.27"/>
<polygon fill="#000000" fill-opacity="0.200000" stroke="#000000" stroke-width="2" stroke-opacity="0.200000" points="506.72,-289.3 513.07,-289.24 508.07,-285.32 506.72,-289.3"/>
</g>
<!-- src/components/organisms/InsProfile.tsx&#45;&gt;src/components/atoms/InsAvatar.tsx -->
<g id="edge16" class="edge">
<title>src/components/organisms/InsProfile.tsx&#45;&gt;src/components/atoms/InsAvatar.tsx</title>
<path fill="none" stroke="#000000" stroke-width="2" stroke-opacity="0.200000" d="M547.05,-289.36C557.53,-271.52 583.46,-231.67 616.5,-211.37 623.29,-207.2 631.17,-204.18 638.97,-202.01"/>
<polygon fill="#000000" fill-opacity="0.200000" stroke="#000000" stroke-width="2" stroke-opacity="0.200000" points="639.61,-204.02 644.91,-200.51 638.58,-199.94 639.61,-204.02"/>
</g>
<!-- src/components/organisms/InsProfile.tsx&#45;&gt;src/components/atoms/InsBodyText.tsx -->
<g id="edge17" class="edge">
<title>src/components/organisms/InsProfile.tsx&#45;&gt;src/components/atoms/InsBodyText.tsx</title>
<path fill="none" stroke="#000000" stroke-width="2" stroke-opacity="0.200000" d="M557.34,-307.45C571.97,-315.55 594.91,-326.8 616.5,-331.37 667.37,-342.13 683.27,-344.82 733.5,-331.37 746.24,-327.96 759.09,-320.59 768.83,-314"/>
<polygon fill="#000000" fill-opacity="0.200000" stroke="#000000" stroke-width="2" stroke-opacity="0.200000" points="770.19,-315.62 773.9,-310.46 767.78,-312.18 770.19,-315.62"/>
</g>
<!-- src/components/organisms/InsProfile.tsx&#45;&gt;src/components/atoms/InsButton.tsx -->
<g id="edge18" class="edge">
<title>src/components/organisms/InsProfile.tsx&#45;&gt;src/components/atoms/InsButton.tsx</title>
<path fill="none" stroke="#000000" stroke-width="2" stroke-opacity="0.200000" d="M575.27,-302.77C594.37,-305.3 618.46,-308.49 638.52,-311.14"/>
<polygon fill="#000000" fill-opacity="0.200000" stroke="#000000" stroke-width="2" stroke-opacity="0.200000" points="638.38,-313.24 644.6,-311.95 638.93,-309.08 638.38,-313.24"/>
</g>
<!-- src/components/organisms/InsSideNav.tsx -->
<g id="node24" class="node">
<title>src/components/organisms/InsSideNav.tsx</title>
<g id="a_node24"><a xlink:href="src/components/organisms/InsSideNav.tsx" xlink:title="InsSideNav.tsx">
<path fill="#bbfeff" stroke="black" d="M456.5,-298.37C456.5,-298.37 391.5,-298.37 391.5,-298.37 388.5,-298.37 385.5,-295.37 385.5,-292.37 385.5,-292.37 385.5,-286.37 385.5,-286.37 385.5,-283.37 388.5,-280.37 391.5,-280.37 391.5,-280.37 456.5,-280.37 456.5,-280.37 459.5,-280.37 462.5,-283.37 462.5,-286.37 462.5,-286.37 462.5,-292.37 462.5,-292.37 462.5,-295.37 459.5,-298.37 456.5,-298.37"/>
<text text-anchor="start" x="393.5" y="-287.17" font-family="Helvetica,sans-Serif" font-size="9.00">InsSideNav.tsx</text>
</a>
</g>
</g>
<!-- src/components/templates/InsHome.tsx -->
<g id="node25" class="node">
<title>src/components/templates/InsHome.tsx</title>
<g id="a_node25"><a xlink:href="src/components/templates/InsHome.tsx" xlink:title="InsHome.tsx">
<path fill="#bbfeff" stroke="black" d="M451.5,-178.37C451.5,-178.37 396.5,-178.37 396.5,-178.37 393.5,-178.37 390.5,-175.37 390.5,-172.37 390.5,-172.37 390.5,-166.37 390.5,-166.37 390.5,-163.37 393.5,-160.37 396.5,-160.37 396.5,-160.37 451.5,-160.37 451.5,-160.37 454.5,-160.37 457.5,-163.37 457.5,-166.37 457.5,-166.37 457.5,-172.37 457.5,-172.37 457.5,-175.37 454.5,-178.37 451.5,-178.37"/>
<text text-anchor="start" x="398.5" y="-167.17" font-family="Helvetica,sans-Serif" font-size="9.00">InsHome.tsx</text>
</a>
</g>
</g>
<!-- src/components/templates/InsHome.tsx&#45;&gt;src/components/atoms/InsHeading.tsx -->
<g id="edge19" class="edge">
<title>src/components/templates/InsHome.tsx&#45;&gt;src/components/atoms/InsHeading.tsx</title>
<path fill="none" stroke="#000000" stroke-width="2" stroke-opacity="0.200000" d="M436.57,-178.4C445.94,-185.1 459.79,-193.69 473.5,-197.37 502.48,-205.13 582.98,-213.14 608.5,-197.37 615.26,-193.19 610.28,-186.33 616.5,-181.37 621.7,-177.22 627.87,-174.2 634.27,-172"/>
<polygon fill="#000000" fill-opacity="0.200000" stroke="#000000" stroke-width="2" stroke-opacity="0.200000" points="635.06,-173.96 640.19,-170.2 633.84,-169.94 635.06,-173.96"/>
</g>
<!-- src/components/templates/InsHome.tsx&#45;&gt;src/components/molecules/InsIndicator.tsx -->
<g id="edge20" class="edge">
<title>src/components/templates/InsHome.tsx&#45;&gt;src/components/molecules/InsIndicator.tsx</title>
<path fill="none" stroke="#000000" stroke-width="2" stroke-opacity="0.200000" d="M430.6,-159.96C438.53,-147.5 454.22,-125.79 473.5,-114.37 480.4,-110.28 488.3,-107.31 496.19,-105.14"/>
<polygon fill="#000000" fill-opacity="0.200000" stroke="#000000" stroke-width="2" stroke-opacity="0.200000" points="496.9,-107.13 502.21,-103.64 495.88,-103.06 496.9,-107.13"/>
</g>
<!-- src/services/http.service.ts -->
<g id="node43" class="node">
<title>src/services/http.service.ts</title>
<g id="a_node43"><a xlink:href="src/services/http.service.ts" xlink:title="http.service.ts">
<path fill="#ddfeff" stroke="black" d="M816.5,-639.37C816.5,-639.37 756.5,-639.37 756.5,-639.37 753.5,-639.37 750.5,-636.37 750.5,-633.37 750.5,-633.37 750.5,-627.37 750.5,-627.37 750.5,-624.37 753.5,-621.37 756.5,-621.37 756.5,-621.37 816.5,-621.37 816.5,-621.37 819.5,-621.37 822.5,-624.37 822.5,-627.37 822.5,-627.37 822.5,-633.37 822.5,-633.37 822.5,-636.37 819.5,-639.37 816.5,-639.37"/>
<text text-anchor="start" x="758.5" y="-628.17" font-family="Helvetica,sans-Serif" font-size="9.00">http.service.ts</text>
</a>
</g>
</g>
<!-- src/services/auth.service.ts&#45;&gt;src/services/http.service.ts -->
<g id="edge42" class="edge">
<title>src/services/auth.service.ts&#45;&gt;src/services/http.service.ts</title>
<path fill="none" stroke="#000000" stroke-width="2" stroke-opacity="0.200000" d="M716.6,-620.57C725.59,-621.85 735.26,-623.23 744.44,-624.53"/>
<polygon fill="#000000" fill-opacity="0.200000" stroke="#000000" stroke-width="2" stroke-opacity="0.200000" points="744.15,-626.61 750.38,-625.38 744.74,-622.45 744.15,-626.61"/>
</g>
<!-- src/hooks/useDebounce.ts -->
<g id="node30" class="node">
<title>src/hooks/useDebounce.ts</title>
<g id="a_node30"><a xlink:href="src/hooks/useDebounce.ts" xlink:title="useDebounce.ts">
<path fill="#ccffcc" stroke="black" d="M576.5,-534.37C576.5,-534.37 505.5,-534.37 505.5,-534.37 502.5,-534.37 499.5,-531.37 499.5,-528.37 499.5,-528.37 499.5,-522.37 499.5,-522.37 499.5,-519.37 502.5,-516.37 505.5,-516.37 505.5,-516.37 576.5,-516.37 576.5,-516.37 579.5,-516.37 582.5,-519.37 582.5,-522.37 582.5,-522.37 582.5,-528.37 582.5,-528.37 582.5,-531.37 579.5,-534.37 576.5,-534.37"/>
<text text-anchor="start" x="507.5" y="-523.17" font-family="Helvetica,sans-Serif" font-size="9.00">useDebounce.ts</text>
</a>
</g>
</g>
<!-- src/hooks/useLocationPathName.ts -->
<g id="node31" class="node">
<title>src/hooks/useLocationPathName.ts</title>
<g id="a_node31"><a xlink:href="src/hooks/useLocationPathName.ts" xlink:title="useLocationPathName.ts">
<path fill="#ccffcc" stroke="black" d="M594.5,-504.37C594.5,-504.37 487.5,-504.37 487.5,-504.37 484.5,-504.37 481.5,-501.37 481.5,-498.37 481.5,-498.37 481.5,-492.37 481.5,-492.37 481.5,-489.37 484.5,-486.37 487.5,-486.37 487.5,-486.37 594.5,-486.37 594.5,-486.37 597.5,-486.37 600.5,-489.37 600.5,-492.37 600.5,-492.37 600.5,-498.37 600.5,-498.37 600.5,-501.37 597.5,-504.37 594.5,-504.37"/>
<text text-anchor="start" x="489.5" y="-493.17" font-family="Helvetica,sans-Serif" font-size="9.00">useLocationPathName.ts</text>
</a>
</g>
</g>
<!-- src/hooks/useOnline.tsx -->
<g id="node32" class="node">
<title>src/hooks/useOnline.tsx</title>
<g id="a_node32"><a xlink:href="src/hooks/useOnline.tsx" xlink:title="useOnline.tsx">
<path fill="#bbfeff" stroke="black" d="M571,-474.37C571,-474.37 511,-474.37 511,-474.37 508,-474.37 505,-471.37 505,-468.37 505,-468.37 505,-462.37 505,-462.37 505,-459.37 508,-456.37 511,-456.37 511,-456.37 571,-456.37 571,-456.37 574,-456.37 577,-459.37 577,-462.37 577,-462.37 577,-468.37 577,-468.37 577,-471.37 574,-474.37 571,-474.37"/>
<text text-anchor="start" x="513" y="-463.17" font-family="Helvetica,sans-Serif" font-size="9.00">useOnline.tsx</text>
</a>
</g>
</g>
<!-- src/hooks/useReduxHooks.ts -->
<g id="node33" class="node">
<title>src/hooks/useReduxHooks.ts</title>
<g id="a_node33"><a xlink:href="src/hooks/useReduxHooks.ts" xlink:title="useReduxHooks.ts">
<path fill="#ccffcc" stroke="black" d="M582,-444.37C582,-444.37 500,-444.37 500,-444.37 497,-444.37 494,-441.37 494,-438.37 494,-438.37 494,-432.37 494,-432.37 494,-429.37 497,-426.37 500,-426.37 500,-426.37 582,-426.37 582,-426.37 585,-426.37 588,-429.37 588,-432.37 588,-432.37 588,-438.37 588,-438.37 588,-441.37 585,-444.37 582,-444.37"/>
<text text-anchor="start" x="502" y="-433.17" font-family="Helvetica,sans-Serif" font-size="9.00">useReduxHooks.ts</text>
</a>
</g>
</g>
<!-- src/hooks/useZxcvbn.ts -->
<g id="node34" class="node">
<title>src/hooks/useZxcvbn.ts</title>
<g id="a_node34"><a xlink:href="src/hooks/useZxcvbn.ts" xlink:title="useZxcvbn.ts">
<path fill="#ccffcc" stroke="black" d="M570,-414.37C570,-414.37 512,-414.37 512,-414.37 509,-414.37 506,-411.37 506,-408.37 506,-408.37 506,-402.37 506,-402.37 506,-399.37 509,-396.37 512,-396.37 512,-396.37 570,-396.37 570,-396.37 573,-396.37 576,-399.37 576,-402.37 576,-402.37 576,-408.37 576,-408.37 576,-411.37 573,-414.37 570,-414.37"/>
<text text-anchor="start" x="514" y="-403.17" font-family="Helvetica,sans-Serif" font-size="9.00">useZxcvbn.ts</text>
</a>
</g>
</g>
<!-- src/main.tsx -->
<g id="node35" class="node">
<title>src/main.tsx</title>
<g id="a_node35"><a xlink:href="src/main.tsx" xlink:title="main.tsx">
<path fill="#bbfeff" stroke="black" d="M72,-571.37C72,-571.37 30,-571.37 30,-571.37 27,-571.37 24,-568.37 24,-565.37 24,-565.37 24,-559.37 24,-559.37 24,-556.37 27,-553.37 30,-553.37 30,-553.37 72,-553.37 72,-553.37 75,-553.37 78,-556.37 78,-559.37 78,-559.37 78,-565.37 78,-565.37 78,-568.37 75,-571.37 72,-571.37"/>
<text text-anchor="start" x="34" y="-560.17" font-family="Helvetica,sans-Serif" font-size="9.00">main.tsx</text>
</a>
</g>
</g>
<!-- src/main.tsx&#45;&gt;src/App.tsx -->
<g id="edge24" class="edge">
<title>src/main.tsx&#45;&gt;src/App.tsx</title>
<path fill="none" stroke="#000000" stroke-width="2" stroke-opacity="0.200000" d="M78.25,-562.37C82.16,-562.37 86.22,-562.37 90.23,-562.37"/>
<polygon fill="#000000" fill-opacity="0.200000" stroke="#000000" stroke-width="2" stroke-opacity="0.200000" points="90.46,-564.47 96.46,-562.37 90.46,-560.27 90.46,-564.47"/>
</g>
<!-- src/pages/BasePage.tsx&#45;&gt;src/components/molecules/InsDrawer.tsx -->
<g id="edge25" class="edge">
<title>src/pages/BasePage.tsx&#45;&gt;src/components/molecules/InsDrawer.tsx</title>
<path fill="none" stroke="#000000" stroke-width="2" stroke-opacity="0.200000" d="M336.14,-258.04C345.69,-255.9 355.13,-251.83 361.5,-244.37 375.26,-228.26 358.46,-167.45 369.5,-149.37 397.02,-104.28 457.71,-84.24 498.74,-75.59"/>
<polygon fill="#000000" fill-opacity="0.200000" stroke="#000000" stroke-width="2" stroke-opacity="0.200000" points="499.18,-77.64 504.65,-74.4 498.35,-73.53 499.18,-77.64"/>
</g>
<!-- src/pages/BasePage.tsx&#45;&gt;src/components/organisms/InsHeader.tsx -->
<g id="edge26" class="edge">
<title>src/pages/BasePage.tsx&#45;&gt;src/components/organisms/InsHeader.tsx</title>
<path fill="none" stroke="#000000" stroke-width="2" stroke-opacity="0.200000" d="M336.26,-259.37C350.35,-259.37 366.63,-259.37 381.25,-259.37"/>
<polygon fill="#000000" fill-opacity="0.200000" stroke="#000000" stroke-width="2" stroke-opacity="0.200000" points="381.41,-261.47 387.41,-259.37 381.41,-257.27 381.41,-261.47"/>
</g>
<!-- src/pages/BasePage.tsx&#45;&gt;src/components/organisms/InsSideNav.tsx -->
<g id="edge27" class="edge">
<title>src/pages/BasePage.tsx&#45;&gt;src/components/organisms/InsSideNav.tsx</title>
<path fill="none" stroke="#000000" stroke-width="2" stroke-opacity="0.200000" d="M336.26,-268.13C349.98,-271.49 365.77,-275.35 380.09,-278.86"/>
<polygon fill="#000000" fill-opacity="0.200000" stroke="#000000" stroke-width="2" stroke-opacity="0.200000" points="379.8,-280.95 386.13,-280.34 380.8,-276.87 379.8,-280.95"/>
</g>
<!-- src/pages/BasePage.tsx&#45;&gt;src/hooks/useOnline.tsx -->
<g id="edge28" class="edge">
<title>src/pages/BasePage.tsx&#45;&gt;src/hooks/useOnline.tsx</title>
<path fill="none" stroke="#000000" stroke-width="2" stroke-opacity="0.200000" d="M336.09,-260.74C345.64,-262.89 355.08,-266.94 361.5,-274.37 373.62,-288.39 360.59,-341.12 369.5,-357.37 395.55,-404.84 432.18,-389.69 465.5,-432.37 470.89,-439.27 466.73,-444.82 473.5,-450.37 480.7,-456.28 489.77,-459.98 498.87,-462.26"/>
<polygon fill="#000000" fill-opacity="0.200000" stroke="#000000" stroke-width="2" stroke-opacity="0.200000" points="498.52,-464.33 504.83,-463.56 499.42,-460.23 498.52,-464.33"/>
</g>
<!-- src/pages/ColumnOnePage.tsx -->
<g id="node37" class="node">
<title>src/pages/ColumnOnePage.tsx</title>
<g id="a_node37"><a xlink:href="src/pages/ColumnOnePage.tsx" xlink:title="ColumnOnePage.tsx">
<path fill="#bbfeff" stroke="black" d="M344,-238.37C344,-238.37 255,-238.37 255,-238.37 252,-238.37 249,-235.37 249,-232.37 249,-232.37 249,-226.37 249,-226.37 249,-223.37 252,-220.37 255,-220.37 255,-220.37 344,-220.37 344,-220.37 347,-220.37 350,-223.37 350,-226.37 350,-226.37 350,-232.37 350,-232.37 350,-235.37 347,-238.37 344,-238.37"/>
<text text-anchor="start" x="257" y="-227.17" font-family="Helvetica,sans-Serif" font-size="9.00">ColumnOnePage.tsx</text>
</a>
</g>
</g>
<!-- src/pages/ColumnOnePage.tsx&#45;&gt;src/components/atoms/InsContentBlock.tsx -->
<g id="edge29" class="edge">
<title>src/pages/ColumnOnePage.tsx&#45;&gt;src/components/atoms/InsContentBlock.tsx</title>
<path fill="none" stroke="#000000" stroke-width="2" stroke-opacity="0.200000" d="M350.1,-223.28C354.43,-221.05 358.36,-218.14 361.5,-214.37 380.32,-191.8 351.44,-105.55 369.5,-82.37 399.31,-44.12 425.58,-56.79 473.5,-49.37 503.15,-44.78 586.15,-29.36 608.5,-49.37 620.5,-60.11 605.87,-109.28 616.5,-121.37 618.86,-124.05 621.61,-126.29 624.61,-128.17"/>
<polygon fill="#000000" fill-opacity="0.200000" stroke="#000000" stroke-width="2" stroke-opacity="0.200000" points="623.98,-130.21 630.27,-131.15 625.94,-126.49 623.98,-130.21"/>
</g>
<!-- src/pages/ColumnOnePage.tsx&#45;&gt;src/components/organisms/InsFooter.tsx -->
<g id="edge30" class="edge">
<title>src/pages/ColumnOnePage.tsx&#45;&gt;src/components/organisms/InsFooter.tsx</title>
<path fill="none" stroke="#000000" stroke-width="2" stroke-opacity="0.200000" d="M350.33,-229.37C361.4,-229.37 372.99,-229.37 383.58,-229.37"/>
<polygon fill="#000000" fill-opacity="0.200000" stroke="#000000" stroke-width="2" stroke-opacity="0.200000" points="383.69,-231.47 389.69,-229.37 383.69,-227.27 383.69,-231.47"/>
</g>
<!-- src/pages/ColumnThreePage.tsx&#45;&gt;src/components/organisms/InsSideNav.tsx -->
<g id="edge31" class="edge">
<title>src/pages/ColumnThreePage.tsx&#45;&gt;src/components/organisms/InsSideNav.tsx</title>
<path fill="none" stroke="#000000" stroke-width="2" stroke-opacity="0.200000" d="M353.52,-289.37C362.07,-289.37 370.84,-289.37 379.15,-289.37"/>
<polygon fill="#000000" fill-opacity="0.200000" stroke="#000000" stroke-width="2" stroke-opacity="0.200000" points="379.4,-291.47 385.4,-289.37 379.4,-287.27 379.4,-291.47"/>
</g>
<!-- src/pages/HomePage.tsx&#45;&gt;src/components/templates/InsHome.tsx -->
<g id="edge32" class="edge">
<title>src/pages/HomePage.tsx&#45;&gt;src/components/templates/InsHome.tsx</title>
<path fill="none" stroke="#000000" stroke-width="2" stroke-opacity="0.200000" d="M337.25,-190.37C352.19,-186.71 369.44,-182.48 384.54,-178.79"/>
<polygon fill="#000000" fill-opacity="0.200000" stroke="#000000" stroke-width="2" stroke-opacity="0.200000" points="385.11,-180.81 390.43,-177.34 384.11,-176.73 385.11,-180.81"/>
</g>
<!-- src/services/todos.service.ts -->
<g id="node44" class="node">
<title>src/services/todos.service.ts</title>
<g id="a_node44"><a xlink:href="src/services/todos.service.ts" xlink:title="todos.service.ts">
<path fill="#ddfeff" stroke="black" d="M713,-654.37C713,-654.37 645,-654.37 645,-654.37 642,-654.37 639,-651.37 639,-648.37 639,-648.37 639,-642.37 639,-642.37 639,-639.37 642,-636.37 645,-636.37 645,-636.37 713,-636.37 713,-636.37 716,-636.37 719,-639.37 719,-642.37 719,-642.37 719,-648.37 719,-648.37 719,-651.37 716,-654.37 713,-654.37"/>
<text text-anchor="start" x="647" y="-643.17" font-family="Helvetica,sans-Serif" font-size="9.00">todos.service.ts</text>
</a>
</g>
</g>
<!-- src/services/todos.service.ts&#45;&gt;src/services/http.service.ts -->
<g id="edge43" class="edge">
<title>src/services/todos.service.ts&#45;&gt;src/services/http.service.ts</title>
<path fill="none" stroke="#000000" stroke-width="2" stroke-opacity="0.200000" d="M719.28,-639.78C727.41,-638.63 735.99,-637.41 744.18,-636.24"/>
<polygon fill="#000000" fill-opacity="0.200000" stroke="#000000" stroke-width="2" stroke-opacity="0.200000" points="744.71,-638.29 750.36,-635.37 744.12,-634.13 744.71,-638.29"/>
</g>
<!-- src/store/slices/todos/todosSlice.ts&#45;&gt;src/utilities/index.ts -->
<g id="edge47" class="edge">
<title>src/store/slices/todos/todosSlice.ts&#45;&gt;src/utilities/index.ts</title>
<path fill="none" stroke="#000000" stroke-width="2" stroke-opacity="0.200000" d="M558.14,-622.35C582.57,-608.7 629.01,-582.75 656.35,-567.46"/>
<polygon fill="#000000" fill-opacity="0.200000" stroke="#000000" stroke-width="2" stroke-opacity="0.200000" points="657.67,-569.13 661.89,-564.37 655.62,-565.47 657.67,-569.13"/>
</g>
<!-- src/store/slices/todos/todosSlice.ts&#45;&gt;src/services/todos.service.ts -->
<g id="edge46" class="edge">
<title>src/store/slices/todos/todosSlice.ts&#45;&gt;src/services/todos.service.ts</title>
<path fill="none" stroke="#000000" stroke-width="2" stroke-opacity="0.200000" d="M575.27,-634.79C592.51,-636.57 613.82,-638.76 632.55,-640.69"/>
<polygon fill="#000000" fill-opacity="0.200000" stroke="#000000" stroke-width="2" stroke-opacity="0.200000" points="632.61,-642.81 638.8,-641.33 633.04,-638.63 632.61,-642.81"/>
</g>
<!-- src/types/index.ts -->
<g id="node47" class="node">
<title>src/types/index.ts</title>
<g id="a_node47"><a xlink:href="src/types/index.ts" xlink:title="index.ts">
<path fill="#ccffcc" stroke="black" d="M72,-682.37C72,-682.37 30,-682.37 30,-682.37 27,-682.37 24,-679.37 24,-676.37 24,-676.37 24,-670.37 24,-670.37 24,-667.37 27,-664.37 30,-664.37 30,-664.37 72,-664.37 72,-664.37 75,-664.37 78,-667.37 78,-670.37 78,-670.37 78,-676.37 78,-676.37 78,-679.37 75,-682.37 72,-682.37"/>
<text text-anchor="start" x="35" y="-671.17" font-family="Helvetica,sans-Serif" font-size="9.00">index.ts</text>
</a>
</g>
</g>
<!-- src/vite&#45;env.d.ts -->
<g id="node48" class="node">
<title>src/vite&#45;env.d.ts</title>
<g id="a_node48"><a xlink:href="src/vite-env.d.ts" xlink:title="vite&#45;env.d.ts">
<path fill="#ccffcc" stroke="black" d="M77.5,-297.37C77.5,-297.37 24.5,-297.37 24.5,-297.37 21.5,-297.37 18.5,-294.37 18.5,-291.37 18.5,-291.37 18.5,-285.37 18.5,-285.37 18.5,-282.37 21.5,-279.37 24.5,-279.37 24.5,-279.37 77.5,-279.37 77.5,-279.37 80.5,-279.37 83.5,-282.37 83.5,-285.37 83.5,-285.37 83.5,-291.37 83.5,-291.37 83.5,-294.37 80.5,-297.37 77.5,-297.37"/>
<text text-anchor="start" x="26.5" y="-286.17" font-family="Helvetica,sans-Serif" font-size="9.00">vite&#45;env.d.ts</text>
</a>
</g>
</g>
</g>
</svg>
