<svg id="Layer_1" data-name="Layer 1" xmlns="http://www.w3.org/2000/svg" width="750" height="194.37" viewBox="0 0 750 194.37"><defs><style>.cls-1{fill:#721357;}.cls-2{fill:#ae0a46;}.cls-3{fill:#d40e8c;}.cls-4{fill:#af0e2e;}.cls-5{fill:#3e332d;}</style></defs><title>insight-logo</title><g id="Symbol"><path class="cls-1" d="M97.62,426.47V346H117.9V426.3H97.62ZM120,291.22a12.18,12.18,0,0,0-12.2-12.38,12.33,12.33,0,0,0-12.38,12.38,12.18,12.18,0,0,0,12.38,12.2A12,12,0,0,0,120,291.22Z" transform="translate(0 -277.81)"/><path class="cls-2" d="M54.31,283.14V363.4H34V283.14ZM31.79,418.22A12.18,12.18,0,0,0,44,430.6a12.32,12.32,0,0,0,12.37-12.38,12.29,12.29,0,0,0-24.58,0Z" transform="translate(0 -277.81)"/><path class="cls-3" d="M147.63,333.15H67.2V312.87h80.26v20.28ZM12.37,310.64A12.18,12.18,0,0,0,0,322.84a12.32,12.32,0,0,0,12.37,12.37,12.18,12.18,0,0,0,12.21-12.37A12,12,0,0,0,12.37,310.64Z" transform="translate(0 -277.81)"/><path class="cls-4" d="M4.3,376.46H84.56v20.28H4.3ZM139.38,398.8a12.17,12.17,0,0,0,12.37-12.2,12.32,12.32,0,0,0-12.37-12.37,12.29,12.29,0,0,0,0,24.57Z" transform="translate(0 -277.81)"/></g><g id="Wordmark"><path class="cls-5" d="M200.05,426.47V283.14h23.54V426.47ZM463.85,295a13.28,13.28,0,0,0-13.23-13.41A13.43,13.43,0,0,0,437.21,295a13.28,13.28,0,0,0,13.41,13.23A13.12,13.12,0,0,0,463.85,295ZM462,426.47V325.25H439.1V426.3H462Zm-129.41-61h0c0-27.84-17.7-43-47.09-43-20.45,0-36.61,9.28-38.67,10.14v93.83h22.86V345.7a45.17,45.17,0,0,1,17-3.78c15.47,0,23.2,8.59,23.2,23.37v61.18h22.86v-61Zm348.19,0c0-26.46-18.56-43.14-42.28-43.14-13.75,0-20.11,4.13-20.62,4.3V277.81H595V426.3h22.86V345.53a38.48,38.48,0,0,1,16.33-3.79c15.29,0,23.88,8.25,23.88,23.38V426.3h22.86l-.17-60.84ZM421.92,397.77c0-17-12.2-24.4-24.41-29.73-2.06-.86-8.76-3.61-9.79-4.13-8.6-3.6-14.61-6.18-14.61-13.06,0-5.15,4.12-10,16.15-10,11.69,0,21.83,6,22.86,6.53l8.42-15.81c-.68-.35-11.86-9.11-32.65-9.11-22.17,0-37.47,12-37.47,30.24,0,16.33,11.52,23.55,22.52,28,1.37.51,11,4.64,13.23,5.5,8.59,3.43,12.89,7,12.89,12.71,0,6.19-5.67,11.86-18,11.86-12.89,0-23.89-7.22-25.61-8.25l-8.6,15.81c1.21,1,15.3,10.83,36.95,10.83C405.76,429.05,421.92,417.54,421.92,397.77Zm150.89-65.13v86.44c0,31.11-14.09,53.11-50.53,53.11a117.08,117.08,0,0,1-26.46-3.1V450.36a94.48,94.48,0,0,0,23.54,3.44C542.05,453.8,550,442.46,550,427V425.1a46.91,46.91,0,0,1-19.59,3.95c-32.65,0-50.52-24.4-50.52-53.28,0-30.42,18.9-53.45,53.1-53.45C553.22,322.5,570.23,331.26,572.81,332.64ZM550.13,345.7a41.75,41.75,0,0,0-17.53-3.78c-17,0-29.56,12.54-29.56,34,0,22.85,14.43,33.68,29.56,33.68,8.93,0,16.84-3.09,17.53-3.78ZM724.05,344h25.78V325.25h-26V295H701.36v91.09c0,27.66,12.38,40.38,39.53,40.38H750V407.4c-18.39,0-25.78-5.33-25.78-24.24Z" transform="translate(0 -277.81)"/></g></svg>